<?xml version="1.0" encoding="utf-8"?>
<!-- Generator: Adobe Illustrator 16.0.4, SVG Export Plug-In . SVG Version: 6.00 Build 0)  -->
<!DOCTYPE svg PUBLIC "-//W3C//DTD SVG 1.1//EN" "http://www.w3.org/Graphics/SVG/1.1/DTD/svg11.dtd">
<svg version="1.1" id="Layer_1" xmlns="http://www.w3.org/2000/svg" xmlns:xlink="http://www.w3.org/1999/xlink" x="0px" y="0px"
	 width="70.75px" height="141.499px" viewBox="0 0 70.75 141.499" enable-background="new 0 0 70.75 141.499" xml:space="preserve">
<path display="none" d="M83.271-22.011"/>
<path d="M40.391,46.889l0.726,4.953l-1.354-4.828c0,0-0.56,0.16-0.708-0.833c-0.148-0.993,0-0.045,0-0.045l-3.438-16.583h-0.773
	l-2.602,15.43c0,0-0.057,0.445-0.376,0.559l-0.103,0.548c0,0,0.148,0.05,0.12,0.313s-0.12,0.833-0.12,0.833s0.017,0.279-0.251,0.296
	l-0.337,2.111c0,0-0.105,0.639-0.582,0.959l-0.126,0.907c0,0-0.097,0.395-0.28,0.554c0,0-0.103-0.075,0-0.629l0.16-0.873
	c0,0-0.354-0.332-0.142-1.438l0.314-1.803c0,0-0.194,0.045-0.103-0.525l0.108-0.599c0,0-0.04-0.285,0.24-0.263l0.075-0.57
	c0,0-0.263-0.058-0.206-0.508l2.796-16.388c0,0,0.035-0.445,0.308-0.514l-0.011-2.123c0,0-0.103-0.411,0.445-0.388l0.468,0
	l-0.011-2.008c0,0-0.035-0.744,0.57-0.674c0,0,0.628,0.001,0.571,0.651v2.02h0.662c0,0,0.331-0.011,0.263,0.525v2.008
	c0,0,0.262,0.126,0.33,0.605l3.686,17.46C40.709,46.034,40.914,46.741,40.391,46.889z"/>
<path d="M40.391,114.81l0.726,4.953l-1.354-4.828c0,0-0.56,0.16-0.708-0.832c-0.148-0.993,0-0.045,0-0.045l-3.438-16.583h-0.773
	l-2.602,15.43c0,0-0.057,0.445-0.376,0.559l-0.103,0.548c0,0,0.148,0.05,0.12,0.313s-0.12,0.834-0.12,0.834s0.017,0.279-0.251,0.296
	l-0.337,2.11c0,0-0.105,0.64-0.582,0.959l-0.126,0.907c0,0-0.097,0.396-0.28,0.554c0,0-0.103-0.074,0-0.629l0.16-0.872
	c0,0-0.354-0.331-0.142-1.438l0.314-1.803c0,0-0.194,0.046-0.103-0.525l0.108-0.598c0,0-0.04-0.285,0.24-0.264l0.075-0.57
	c0,0-0.263-0.057-0.206-0.508l2.796-16.388c0,0,0.035-0.445,0.308-0.514l-0.011-2.123c0,0-0.103-0.411,0.445-0.388l0.468,0
	l-0.011-2.008c0,0-0.035-0.744,0.57-0.674c0,0,0.628,0.001,0.571,0.651v2.02h0.662c0,0,0.331-0.011,0.263,0.525v2.008
	c0,0,0.262,0.126,0.33,0.605l3.686,17.46C40.709,113.954,40.914,114.661,40.391,114.81z"/>
<g>
	<path d="M9.244,128.194h0.525l2.264,5.002h-0.603l-0.582-1.312H8.144l-0.589,1.312H6.98L9.244,128.194z M10.627,131.38
		l-1.128-2.533l-1.135,2.533H10.627z"/>
	<path d="M13.008,128.229h2.136c0.61,0,1.1,0.185,1.412,0.497c0.241,0.241,0.383,0.589,0.383,0.979v0.015
		c0,0.823-0.568,1.306-1.348,1.447l1.525,2.029h-0.688l-1.44-1.93h-1.419v1.93h-0.561V128.229z M15.094,130.763
		c0.745,0,1.277-0.383,1.277-1.021v-0.015c0-0.61-0.468-0.979-1.27-0.979h-1.532v2.016H15.094z"/>
	<path d="M17.914,130.728v-0.015c0-1.405,1.05-2.568,2.512-2.568c0.901,0,1.44,0.319,1.937,0.787l-0.383,0.412
		c-0.419-0.397-0.887-0.682-1.561-0.682c-1.1,0-1.923,0.895-1.923,2.037v0.014c0,1.149,0.83,2.051,1.923,2.051
		c0.681,0,1.128-0.263,1.604-0.717l0.369,0.362c-0.518,0.524-1.085,0.872-1.986,0.872C18.971,133.281,17.914,132.153,17.914,130.728
		z"/>
	<path d="M23.367,128.229h0.561v2.207h2.866v-2.207h0.561v4.967h-0.561v-2.235h-2.866v2.235h-0.561V128.229z"/>
	<path d="M28.805,128.229h0.561v4.967h-0.561V128.229z"/>
	<path d="M32.132,128.747h-1.667v-0.518h3.902v0.518h-1.667v4.449h-0.567V128.747z"/>
	<path d="M35.414,128.229h3.59v0.511h-3.029v1.696h2.71v0.511h-2.71v1.738h3.065v0.511h-3.626V128.229z"/>
	<path d="M39.944,130.728v-0.015c0-1.405,1.05-2.568,2.512-2.568c0.901,0,1.44,0.319,1.938,0.787l-0.384,0.412
		c-0.418-0.397-0.887-0.682-1.561-0.682c-1.1,0-1.923,0.895-1.923,2.037v0.014c0,1.149,0.83,2.051,1.923,2.051
		c0.681,0,1.128-0.263,1.604-0.717l0.369,0.362c-0.519,0.524-1.086,0.872-1.987,0.872C41.002,133.281,39.944,132.153,39.944,130.728
		z"/>
	<path d="M46.71,128.747h-1.667v-0.518h3.902v0.518h-1.667v4.449H46.71V128.747z"/>
	<path d="M49.913,131.117v-2.888h0.561v2.853c0,1.071,0.568,1.675,1.519,1.675c0.915,0,1.497-0.554,1.497-1.64v-2.888h0.561v2.846
		c0,1.447-0.83,2.199-2.071,2.199C50.751,133.274,49.913,132.522,49.913,131.117z"/>
	<path d="M55.373,128.229h2.136c0.61,0,1.1,0.185,1.412,0.497c0.241,0.241,0.383,0.589,0.383,0.979v0.015
		c0,0.823-0.567,1.306-1.348,1.447l1.525,2.029h-0.688l-1.44-1.93h-1.419v1.93h-0.561V128.229z M57.459,130.763
		c0.745,0,1.277-0.383,1.277-1.021v-0.015c0-0.61-0.468-0.979-1.27-0.979h-1.533v2.016H57.459z"/>
	<path d="M60.5,128.229h3.591v0.511h-3.03v1.696h2.711v0.511h-2.711v1.738h3.065v0.511H60.5V128.229z"/>
</g>
</svg>
