<?xml version="1.0" encoding="utf-8"?>
<!-- Generator: Adobe Illustrator 16.0.4, SVG Export Plug-In . SVG Version: 6.00 Build 0)  -->
<!DOCTYPE svg PUBLIC "-//W3C//DTD SVG 1.1//EN" "http://www.w3.org/Graphics/SVG/1.1/DTD/svg11.dtd">
<svg version="1.1" id="Layer_1" xmlns="http://www.w3.org/2000/svg" xmlns:xlink="http://www.w3.org/1999/xlink" x="0px" y="0px"
	 width="70.75px" height="141.499px" viewBox="0 0 70.75 141.499" enable-background="new 0 0 70.75 141.499" xml:space="preserve">
<path display="none" d="M83.271-22.011"/>
<g>
	<g>
		<path d="M46.266,37.688v-7.153c0-0.928-0.755-1.682-1.682-1.682l-7.153,0.001l-0.307-0.001c-0.469,0-1.177,0-1.64,0.462
			L24.558,40.243c-0.263,0.263-0.407,0.611-0.407,0.982c0,0.372,0.144,0.721,0.406,0.983l8.354,8.354
			c0.262,0.262,0.611,0.407,0.982,0.407s0.721-0.145,0.983-0.407l10.928-10.929c0.469-0.467,0.466-1.141,0.463-1.79V37.688
			L46.266,37.688z M43.162,35.361c-0.454,0.454-1.057,0.704-1.7,0.704c-0.642,0-1.244-0.25-1.697-0.704
			c-0.937-0.938-0.938-2.463,0-3.4c0.452-0.454,1.056-0.705,1.697-0.705c0.644,0,1.247,0.25,1.7,0.705
			C44.1,32.896,44.1,34.422,43.162,35.361z"/>
	</g>
</g>
<g>
	<g>
		<path d="M46.266,106.69v-7.153c0-0.928-0.755-1.682-1.682-1.682l-7.153,0.001l-0.307-0.001c-0.469,0-1.177,0-1.64,0.462
			l-10.927,10.927c-0.263,0.263-0.407,0.611-0.407,0.982c0,0.372,0.144,0.721,0.406,0.983l8.354,8.354
			c0.262,0.263,0.611,0.407,0.982,0.407s0.721-0.145,0.983-0.407l10.928-10.929c0.469-0.467,0.466-1.141,0.463-1.79V106.69
			L46.266,106.69z M43.162,104.363c-0.454,0.454-1.057,0.704-1.7,0.704c-0.642,0-1.244-0.25-1.697-0.704
			c-0.937-0.938-0.938-2.463,0-3.4c0.452-0.454,1.056-0.705,1.697-0.705c0.644,0,1.247,0.25,1.7,0.705
			C44.1,101.899,44.1,103.424,43.162,104.363z"/>
	</g>
</g>
<g>
	<path d="M16.22,128.229h2.114c0.567,0,1.015,0.163,1.298,0.44c0.206,0.213,0.319,0.475,0.319,0.794v0.015
		c0,0.646-0.397,0.979-0.788,1.149c0.589,0.177,1.064,0.518,1.064,1.199v0.014c0,0.852-0.717,1.355-1.802,1.355H16.22V128.229z
		 M18.242,130.443c0.674,0,1.143-0.305,1.143-0.887v-0.015c0-0.489-0.391-0.809-1.1-0.809h-1.511v1.71H18.242z M18.44,132.692
		c0.752,0,1.22-0.333,1.22-0.887v-0.015c0-0.539-0.454-0.851-1.32-0.851h-1.568v1.752H18.44z"/>
	<path d="M21.339,128.229h2.136c0.61,0,1.1,0.185,1.412,0.497c0.241,0.241,0.383,0.589,0.383,0.979v0.015
		c0,0.823-0.568,1.306-1.348,1.447l1.525,2.029h-0.688l-1.44-1.93h-1.419v1.93h-0.561V128.229z M23.425,130.763
		c0.745,0,1.277-0.383,1.277-1.021v-0.015c0-0.61-0.468-0.979-1.27-0.979h-1.532v2.016H23.425z"/>
	<path d="M28.303,128.194h0.525l2.263,5.002h-0.603l-0.582-1.312h-2.703l-0.589,1.312H26.04L28.303,128.194z M29.687,131.38
		l-1.128-2.533l-1.135,2.533H29.687z"/>
	<path d="M32.067,128.229h0.525l3.129,3.98v-3.98h0.547v4.967H35.82l-3.207-4.072v4.072h-0.546V128.229z"/>
	<path d="M37.668,128.229h1.725c1.561,0,2.64,1.071,2.64,2.47v0.014c0,1.397-1.079,2.483-2.64,2.483h-1.725V128.229z
		 M39.393,132.679c1.256,0,2.058-0.852,2.058-1.951v-0.015c0-1.1-0.802-1.966-2.058-1.966h-1.164v3.932H39.393z"/>
	<path d="M43.263,128.229h0.561v4.967h-0.561V128.229z"/>
	<path d="M45.276,128.229h0.525l3.129,3.98v-3.98h0.547v4.967H49.03l-3.207-4.072v4.072h-0.547V128.229z"/>
	<path d="M50.658,130.728v-0.015c0-1.362,1.001-2.568,2.49-2.568c0.838,0,1.355,0.241,1.853,0.66l-0.362,0.426
		c-0.383-0.334-0.809-0.568-1.512-0.568c-1.1,0-1.887,0.93-1.887,2.037v0.014c0,1.185,0.759,2.064,1.965,2.064
		c0.568,0,1.093-0.22,1.434-0.496v-1.234h-1.512v-0.504h2.051v1.979c-0.461,0.411-1.156,0.759-1.993,0.759
		C51.623,133.281,50.658,132.146,50.658,130.728z"/>
</g>
</svg>
