<?xml version="1.0" encoding="utf-8"?>
<!-- Generator: Adobe Illustrator 16.0.4, SVG Export Plug-In . SVG Version: 6.00 Build 0)  -->
<!DOCTYPE svg PUBLIC "-//W3C//DTD SVG 1.1//EN" "http://www.w3.org/Graphics/SVG/1.1/DTD/svg11.dtd">
<svg version="1.1" id="Layer_1" xmlns="http://www.w3.org/2000/svg" xmlns:xlink="http://www.w3.org/1999/xlink" x="0px" y="0px"
	 width="70.75px" height="141.499px" viewBox="0 0 70.75 141.499" enable-background="new 0 0 70.75 141.499" xml:space="preserve">
<path display="none" d="M83.271-22.011"/>
<g>
	<path d="M38.573,31.59c0-0.837-0.679-1.444-1.516-1.444h-4.733c-0.837,0-1.516,0.607-1.516,1.444l-0.858,5.832
		c0,0.836,0.679,1.549,1.516,1.549h0.472l1.166,11.615c0,0.508,0.413,0.859,0.923,0.859h1.327c0.51,0,0.923-0.352,0.923-0.859
		l1.168-11.615h0.473c0.836,0,1.515-0.713,1.515-1.549L38.573,31.59z"/>
	<path d="M34.691,24.05c1.403,0,2.542,1.138,2.542,2.54c0,1.405-1.139,2.541-2.542,2.541s-2.542-1.136-2.542-2.541
		C32.151,25.188,33.288,24.05,34.691,24.05z"/>
</g>
<g>
	<path d="M38.573,99.967c0-0.837-0.679-1.444-1.516-1.444h-4.733c-0.837,0-1.516,0.607-1.516,1.444l-0.858,5.832
		c0,0.836,0.679,1.549,1.516,1.549h0.472l1.166,11.616c0,0.508,0.413,0.858,0.923,0.858h1.327c0.51,0,0.923-0.352,0.923-0.858
		l1.168-11.616h0.473c0.836,0,1.515-0.713,1.515-1.549L38.573,99.967z"/>
	<path d="M34.691,92.427c1.403,0,2.542,1.138,2.542,2.54c0,1.405-1.139,2.541-2.542,2.541s-2.542-1.136-2.542-2.541
		C32.151,93.565,33.288,92.427,34.691,92.427z"/>
</g>
<g>
	<path d="M12.04,130.728v-0.015c0-1.405,1.05-2.568,2.512-2.568c0.901,0,1.44,0.319,1.937,0.787l-0.383,0.412
		c-0.419-0.397-0.887-0.682-1.561-0.682c-1.1,0-1.923,0.895-1.923,2.037v0.014c0,1.149,0.83,2.051,1.923,2.051
		c0.681,0,1.128-0.263,1.604-0.717l0.369,0.362c-0.518,0.524-1.085,0.872-1.986,0.872C13.097,133.281,12.04,132.153,12.04,130.728z"
		/>
	<path d="M17.131,130.728v-0.015c0-1.369,1.029-2.568,2.54-2.568s2.526,1.185,2.526,2.555v0.014c0,1.369-1.029,2.568-2.54,2.568
		S17.131,132.097,17.131,130.728z M21.615,130.728v-0.015c0-1.128-0.823-2.051-1.958-2.051s-1.944,0.908-1.944,2.037v0.014
		c0,1.128,0.823,2.051,1.958,2.051S21.615,131.855,21.615,130.728z"/>
	<path d="M23.378,128.229h0.525l3.129,3.98v-3.98h0.546v4.967h-0.447l-3.208-4.072v4.072h-0.546V128.229z"/>
	<path d="M28.653,132.473L29,132.061c0.518,0.469,1.015,0.703,1.703,0.703c0.667,0,1.107-0.354,1.107-0.845v-0.014
		c0-0.462-0.249-0.724-1.292-0.944c-1.143-0.248-1.667-0.617-1.667-1.433v-0.015c0-0.78,0.688-1.355,1.632-1.355
		c0.724,0,1.242,0.206,1.746,0.61l-0.327,0.433c-0.461-0.376-0.922-0.539-1.433-0.539c-0.646,0-1.057,0.355-1.057,0.802v0.015
		c0,0.468,0.255,0.73,1.348,0.965c1.107,0.241,1.618,0.646,1.618,1.405v0.014c0,0.852-0.709,1.405-1.696,1.405
		C29.895,133.268,29.249,133.005,28.653,132.473z"/>
	<path d="M33.439,131.117v-2.888H34v2.853c0,1.071,0.567,1.675,1.518,1.675c0.916,0,1.498-0.554,1.498-1.64v-2.888h0.561v2.846
		c0,1.447-0.83,2.199-2.072,2.199C34.276,133.274,33.439,132.522,33.439,131.117z"/>
	<path d="M38.898,128.229h0.561v4.449h2.796v0.518h-3.356V128.229z"/>
	<path d="M43.892,128.747h-1.667v-0.518h3.902v0.518H44.46v4.449h-0.568V128.747z"/>
	<path d="M47.224,128.229h0.561v4.967h-0.561V128.229z"/>
	<path d="M49.236,128.229h0.525l3.129,3.98v-3.98h0.547v4.967H52.99l-3.207-4.072v4.072h-0.547V128.229z"/>
	<path d="M54.618,130.728v-0.015c0-1.362,1.001-2.568,2.49-2.568c0.838,0,1.355,0.241,1.853,0.66l-0.362,0.426
		c-0.383-0.334-0.809-0.568-1.511-0.568c-1.101,0-1.888,0.93-1.888,2.037v0.014c0,1.185,0.759,2.064,1.965,2.064
		c0.568,0,1.093-0.22,1.434-0.496v-1.234h-1.511v-0.504h2.05v1.979c-0.461,0.411-1.156,0.759-1.993,0.759
		C55.583,133.281,54.618,132.146,54.618,130.728z"/>
</g>
</svg>
