<?xml version="1.0" encoding="utf-8"?>
<!-- Generator: Adobe Illustrator 16.0.4, SVG Export Plug-In . SVG Version: 6.00 Build 0)  -->
<!DOCTYPE svg PUBLIC "-//W3C//DTD SVG 1.1//EN" "http://www.w3.org/Graphics/SVG/1.1/DTD/svg11.dtd">
<svg version="1.1" id="Layer_1" xmlns="http://www.w3.org/2000/svg" xmlns:xlink="http://www.w3.org/1999/xlink" x="0px" y="0px"
	 width="70.75px" height="141.499px" viewBox="0 0 70.75 141.499" enable-background="new 0 0 70.75 141.499" xml:space="preserve">
<path display="none" d="M83.271-22.011"/>
<g>
	<g>
		<path d="M36.815,31.53l-4.333-0.017v-7.433c0-1.198,0.969-2.169,2.166-2.169l0,0c1.199,0,2.167,0.971,2.167,2.169V31.53
			L36.815,31.53z"/>
		<rect x="37.35" y="24.539" width="1.014" height="10.747"/>
	</g>
	<g>
		<path d="M34.733,50.324c0.085-0.42,0.218-1.021,0.374-1.696h-0.77C34.47,49.2,34.604,49.772,34.733,50.324z"/>
		<path d="M36.425,43.107l-0.018-11.08h-3.345v11.094c0,0,0.004,0.011,0.004,0.012h3.351C36.422,43.117,36.425,43.107,36.425,43.107
			z"/>
		<path d="M33.179,43.625c0.193,0.84,0.607,2.629,1.044,4.517h0.999c0.384-1.659,0.855-3.606,1.079-4.517H33.179z"/>
	</g>
</g>
<g>
	<g>
		<path d="M36.815,101.536l-4.333-0.017v-7.433c0-1.198,0.969-2.169,2.166-2.169l0,0c1.199,0,2.167,0.971,2.167,2.169V101.536
			L36.815,101.536z"/>
		<rect x="37.35" y="94.545" width="1.014" height="10.747"/>
	</g>
	<g>
		<path d="M34.733,120.33c0.085-0.421,0.218-1.021,0.374-1.696h-0.77C34.47,119.206,34.604,119.778,34.733,120.33z"/>
		<path d="M36.425,113.113l-0.018-11.08h-3.345v11.094l0.004,0.012h3.351C36.422,113.124,36.425,113.113,36.425,113.113z"/>
		<path d="M33.179,113.632c0.193,0.84,0.607,2.629,1.044,4.516h0.999c0.384-1.658,0.855-3.605,1.079-4.516H33.179z"/>
	</g>
</g>
<g>
	<path d="M8.707,130.728v-0.015c0-1.405,1.05-2.568,2.512-2.568c0.901,0,1.44,0.319,1.937,0.787l-0.383,0.412
		c-0.419-0.397-0.887-0.682-1.561-0.682c-1.1,0-1.923,0.895-1.923,2.037v0.014c0,1.149,0.83,2.051,1.923,2.051
		c0.681,0,1.128-0.263,1.604-0.717l0.369,0.362c-0.518,0.524-1.085,0.872-1.986,0.872C9.764,133.281,8.707,132.153,8.707,130.728z"
		/>
	<path d="M13.798,130.728v-0.015c0-1.369,1.029-2.568,2.54-2.568s2.526,1.185,2.526,2.555v0.014c0,1.369-1.029,2.568-2.54,2.568
		S13.798,132.097,13.798,130.728z M18.283,130.728v-0.015c0-1.128-0.823-2.051-1.958-2.051s-1.944,0.908-1.944,2.037v0.014
		c0,1.128,0.823,2.051,1.958,2.051S18.283,131.855,18.283,130.728z"/>
	<path d="M20.045,128.229h0.525l3.129,3.98v-3.98h0.546v4.967h-0.447l-3.207-4.072v4.072h-0.546V128.229z"/>
	<path d="M26.959,128.747h-1.667v-0.518h3.902v0.518h-1.667v4.449h-0.567V128.747z"/>
	<path d="M30.242,128.229h2.135c0.61,0,1.1,0.185,1.412,0.497c0.241,0.241,0.383,0.589,0.383,0.979v0.015
		c0,0.823-0.568,1.306-1.348,1.447l1.525,2.029h-0.688l-1.44-1.93h-1.419v1.93h-0.561V128.229z M32.328,130.763
		c0.745,0,1.277-0.383,1.277-1.021v-0.015c0-0.61-0.468-0.979-1.27-0.979h-1.532v2.016H32.328z"/>
	<path d="M37.206,128.194h0.524l2.264,5.002h-0.604l-0.581-1.312h-2.704l-0.588,1.312h-0.575L37.206,128.194z M38.589,131.38
		l-1.128-2.533l-1.135,2.533H38.589z"/>
	<path d="M40.459,130.728v-0.015c0-1.405,1.05-2.568,2.512-2.568c0.901,0,1.44,0.319,1.938,0.787l-0.384,0.412
		c-0.418-0.397-0.887-0.682-1.561-0.682c-1.1,0-1.923,0.895-1.923,2.037v0.014c0,1.149,0.83,2.051,1.923,2.051
		c0.681,0,1.128-0.263,1.604-0.717l0.369,0.362c-0.519,0.524-1.086,0.872-1.987,0.872C41.517,133.281,40.459,132.153,40.459,130.728
		z"/>
	<path d="M47.224,128.747h-1.667v-0.518h3.902v0.518h-1.667v4.449h-0.568V128.747z"/>
	<path d="M50.556,128.229h0.561v4.967h-0.561V128.229z"/>
	<path d="M52.569,128.229h0.525l3.129,3.98v-3.98h0.547v4.967h-0.447l-3.207-4.072v4.072h-0.547V128.229z"/>
	<path d="M57.951,130.728v-0.015c0-1.362,1.001-2.568,2.49-2.568c0.838,0,1.355,0.241,1.853,0.66l-0.362,0.426
		c-0.383-0.334-0.809-0.568-1.512-0.568c-1.1,0-1.887,0.93-1.887,2.037v0.014c0,1.185,0.759,2.064,1.965,2.064
		c0.568,0,1.093-0.22,1.434-0.496v-1.234H60.42v-0.504h2.051v1.979c-0.461,0.411-1.156,0.759-1.993,0.759
		C58.916,133.281,57.951,132.146,57.951,130.728z"/>
</g>
</svg>
