<?xml version="1.0" encoding="utf-8"?>
<!-- Generator: Adobe Illustrator 16.0.4, SVG Export Plug-In . SVG Version: 6.00 Build 0)  -->
<!DOCTYPE svg PUBLIC "-//W3C//DTD SVG 1.1//EN" "http://www.w3.org/Graphics/SVG/1.1/DTD/svg11.dtd">
<svg version="1.1" id="Layer_1" xmlns="http://www.w3.org/2000/svg" xmlns:xlink="http://www.w3.org/1999/xlink" x="0px" y="0px"
	 width="70.75px" height="141.499px" viewBox="0 0 70.75 141.499" enable-background="new 0 0 70.75 141.499" xml:space="preserve">
<path display="none" d="M83.271-22.011"/>
<g>
	<path d="M41.389,25.087l1.171,11.125c0.061,0.573-0.357,1.037-0.933,1.037H29.123c-0.576,0-0.993-0.464-0.933-1.037l1.17-11.125
		c0.062-0.572,0.576-1.037,1.151-1.037h9.726C40.812,24.05,41.327,24.515,41.389,25.087z"/>
	<path d="M43.711,40.375c0,0.575-0.467,1.042-1.043,1.042H28.081c-0.576,0-1.042-0.467-1.042-1.042v-1.389
		c0-0.576,0.466-1.042,1.042-1.042h14.587c0.576,0,1.043,0.467,1.043,1.042V40.375L43.711,40.375z"/>
	<g>
		<g>
			<path d="M43.873,51.021l-1.572-8.909H40.89l0.982,5.557H28.878l0.981-5.557h-1.411l-1.572,8.909
				c-0.066,0.377,0.185,0.738,0.563,0.805c0.041,0.008,0.082,0.011,0.121,0.011c0.332,0,0.625-0.237,0.684-0.573l0.389-2.205h13.483
				l0.389,2.205c0.06,0.336,0.352,0.573,0.684,0.573c0.039,0,0.08-0.003,0.12-0.011C43.688,51.758,43.939,51.397,43.873,51.021z"/>
		</g>
	</g>
</g>
<g>
	<path d="M41.389,93.269l1.171,11.125c0.061,0.573-0.357,1.037-0.933,1.037H29.123c-0.576,0-0.993-0.464-0.933-1.037l1.17-11.125
		c0.062-0.572,0.576-1.037,1.151-1.037h9.726C40.812,92.231,41.327,92.696,41.389,93.269z"/>
	<path d="M43.711,108.556c0,0.575-0.467,1.042-1.043,1.042H28.081c-0.576,0-1.042-0.467-1.042-1.042v-1.389
		c0-0.576,0.466-1.042,1.042-1.042h14.587c0.576,0,1.043,0.467,1.043,1.042V108.556L43.711,108.556z"/>
	<g>
		<g>
			<path d="M43.873,119.202l-1.572-8.909H40.89l0.982,5.558H28.878l0.981-5.558h-1.411l-1.572,8.909
				c-0.066,0.377,0.185,0.738,0.563,0.805c0.041,0.008,0.082,0.011,0.121,0.011c0.332,0,0.625-0.237,0.684-0.573l0.389-2.205h13.483
				l0.389,2.205c0.06,0.336,0.352,0.573,0.684,0.573c0.039,0,0.08-0.003,0.12-0.011C43.688,119.94,43.939,119.579,43.873,119.202z"
				/>
		</g>
	</g>
</g>
<g>
	<path d="M22.3,128.229h1.724c1.561,0,2.639,1.071,2.639,2.47v0.014c0,1.397-1.078,2.483-2.639,2.483H22.3V128.229z M24.024,132.679
		c1.256,0,2.058-0.852,2.058-1.951v-0.015c0-1.1-0.802-1.966-2.058-1.966H22.86v3.932H24.024z"/>
	<path d="M27.845,128.229h3.59v0.511h-3.029v1.696h2.71v0.511h-2.71v1.738h3.065v0.511h-3.625V128.229z"/>
	<path d="M32.269,132.473l0.348-0.412c0.518,0.469,1.015,0.703,1.703,0.703c0.667,0,1.107-0.354,1.107-0.845v-0.014
		c0-0.462-0.249-0.724-1.292-0.944c-1.143-0.248-1.667-0.617-1.667-1.433v-0.015c0-0.78,0.688-1.355,1.632-1.355
		c0.724,0,1.242,0.206,1.746,0.61l-0.327,0.433c-0.461-0.376-0.922-0.539-1.433-0.539c-0.646,0-1.057,0.355-1.057,0.802v0.015
		c0,0.468,0.255,0.73,1.348,0.965c1.107,0.241,1.618,0.646,1.618,1.405v0.014c0,0.852-0.71,1.405-1.696,1.405
		C33.51,133.268,32.865,133.005,32.269,132.473z"/>
	<path d="M37.183,128.229h0.561v4.967h-0.561V128.229z"/>
	<path d="M38.977,130.728v-0.015c0-1.362,1.001-2.568,2.49-2.568c0.838,0,1.355,0.241,1.853,0.66l-0.362,0.426
		c-0.383-0.334-0.809-0.568-1.512-0.568c-1.1,0-1.887,0.93-1.887,2.037v0.014c0,1.185,0.759,2.064,1.965,2.064
		c0.568,0,1.093-0.22,1.434-0.496v-1.234h-1.512v-0.504h2.051v1.979c-0.461,0.411-1.156,0.759-1.993,0.759
		C39.941,133.281,38.977,132.146,38.977,130.728z"/>
	<path d="M44.755,128.229h0.525l3.129,3.98v-3.98h0.547v4.967h-0.447l-3.207-4.072v4.072h-0.547V128.229z"/>
</g>
</svg>
