<?xml version="1.0" encoding="utf-8"?>
<!-- Generator: Adobe Illustrator 16.0.4, SVG Export Plug-In . SVG Version: 6.00 Build 0)  -->
<!DOCTYPE svg PUBLIC "-//W3C//DTD SVG 1.1//EN" "http://www.w3.org/Graphics/SVG/1.1/DTD/svg11.dtd">
<svg version="1.1" id="Layer_1" xmlns="http://www.w3.org/2000/svg" xmlns:xlink="http://www.w3.org/1999/xlink" x="0px" y="0px"
	 width="70.75px" height="141.5px" viewBox="0 0 70.75 141.5" enable-background="new 0 0 70.75 141.5" xml:space="preserve">
<path display="none" d="M83.271-22.011"/>
<g>
	<path d="M43.676,24.412l-4.085,4.087l1.321,1.323l-0.4,0.402l-1.324-1.323l-1.266,1.266l1.324,1.324l-0.403,0.403L37.52,30.57
		l-1.266,1.266l1.324,1.323l-0.403,0.403l-1.324-1.323l-1.265,1.265l1.323,1.324l-0.403,0.402l-1.324-1.323l-1.266,1.265
		l1.323,1.324l-0.402,0.402l-1.324-1.323l-1.266,1.265l1.323,1.323l-0.403,0.403l-1.323-1.323l-1.266,1.264l1.324,1.325L30.5,40.235
		l-1.325-1.324l-1.265,1.265l1.323,1.324l-0.403,0.402l-1.324-1.323l-1.265,1.265l1.323,1.324l-0.402,0.402l-1.325-1.323
		l-1.267,1.266l1.325,1.324l-0.402,0.403l-1.324-1.324l-1.356,1.357l4.258,4.258l20.863-20.863L43.676,24.412z M43.009,29.338
		c-0.444-0.445-0.444-1.167,0-1.611c0.445-0.445,1.167-0.445,1.611,0s0.444,1.167,0,1.612
		C44.176,29.783,43.453,29.783,43.009,29.338z"/>
</g>
<g>
	<path d="M43.676,94.865l-4.085,4.088l1.321,1.322l-0.4,0.4l-1.324-1.322l-1.266,1.268l1.324,1.322l-0.403,0.404l-1.323-1.324
		l-1.266,1.266l1.324,1.322l-0.403,0.404l-1.324-1.324l-1.265,1.266l1.323,1.324l-0.403,0.402l-1.324-1.324l-1.266,1.266
		l1.323,1.324l-0.402,0.402l-1.324-1.324l-1.266,1.266l1.323,1.324l-0.403,0.402l-1.323-1.324l-1.266,1.266l1.324,1.324
		l-0.402,0.402l-1.325-1.324l-1.265,1.266l1.323,1.324l-0.403,0.4l-1.324-1.322l-1.265,1.266l1.323,1.324l-0.402,0.4l-1.325-1.322
		l-1.267,1.268l1.325,1.324l-0.402,0.4l-1.324-1.322l-1.356,1.355l4.258,4.258l20.863-20.861L43.676,94.865z M43.009,99.792
		c-0.444-0.444-0.444-1.168,0-1.61c0.445-0.445,1.167-0.445,1.611,0c0.444,0.444,0.444,1.166,0,1.61S43.453,100.236,43.009,99.792z"
		/>
</g>
<g enable-background="new    ">
	<path d="M10.363,128.229h3.59v0.511h-3.029v1.696h2.71v0.511h-2.71v1.738h3.065v0.511h-3.625V128.229z"/>
	<path d="M15.114,128.229h0.525l3.129,3.98v-3.98h0.546v4.967h-0.447l-3.207-4.072v4.072h-0.546V128.229z"/>
	<path d="M20.496,130.727v-0.015c0-1.362,1-2.568,2.491-2.568c0.837,0,1.355,0.241,1.852,0.66l-0.362,0.426
		c-0.383-0.334-0.809-0.568-1.511-0.568c-1.1,0-1.887,0.93-1.887,2.036v0.015c0,1.185,0.759,2.064,1.965,2.064
		c0.567,0,1.093-0.22,1.433-0.496v-1.234h-1.511v-0.504h2.051v1.979c-0.461,0.411-1.157,0.759-1.994,0.759
		C21.46,133.28,20.496,132.146,20.496,130.727z"/>
	<path d="M26.324,128.229h0.561v4.967h-0.561V128.229z"/>
	<path d="M28.338,128.229h0.525l3.129,3.98v-3.98h0.546v4.967h-0.447l-3.207-4.072v4.072h-0.546V128.229z"/>
	<path d="M33.939,128.229h3.59v0.511H34.5v1.696h2.711v0.511H34.5v1.738h3.064v0.511h-3.625V128.229z"/>
	<path d="M38.69,128.229h3.59v0.511h-3.029v1.696h2.71v0.511h-2.71v1.738h3.065v0.511H38.69V128.229z"/>
	<path d="M43.441,128.229h2.135c0.61,0,1.1,0.185,1.412,0.497c0.241,0.241,0.383,0.589,0.383,0.979v0.015
		c0,0.823-0.567,1.306-1.348,1.447l1.525,2.029h-0.688l-1.441-1.93h-1.418v1.93h-0.561V128.229z M45.527,130.762
		c0.744,0,1.276-0.383,1.276-1.021v-0.015c0-0.61-0.468-0.979-1.271-0.979h-1.531v2.016H45.527z"/>
	<path d="M48.617,128.229h0.561v4.967h-0.561V128.229z"/>
	<path d="M50.631,128.229h0.525l3.129,3.98v-3.98h0.546v4.967h-0.446l-3.207-4.072v4.072h-0.547V128.229z"/>
	<path d="M56.012,130.727v-0.015c0-1.362,1.001-2.568,2.491-2.568c0.837,0,1.354,0.241,1.852,0.66l-0.362,0.426
		c-0.383-0.334-0.809-0.568-1.511-0.568c-1.1,0-1.888,0.93-1.888,2.036v0.015c0,1.185,0.76,2.064,1.966,2.064
		c0.567,0,1.093-0.22,1.433-0.496v-1.234h-1.511v-0.504h2.051v1.979c-0.462,0.411-1.157,0.759-1.994,0.759
		C56.977,133.28,56.012,132.146,56.012,130.727z"/>
</g>
</svg>