<?xml version="1.0" encoding="utf-8"?>
<!-- Generator: Adobe Illustrator 16.0.4, SVG Export Plug-In . SVG Version: 6.00 Build 0)  -->
<!DOCTYPE svg PUBLIC "-//W3C//DTD SVG 1.1//EN" "http://www.w3.org/Graphics/SVG/1.1/DTD/svg11.dtd">
<svg version="1.1" id="Layer_1" xmlns="http://www.w3.org/2000/svg" xmlns:xlink="http://www.w3.org/1999/xlink" x="0px" y="0px"
	 width="70.75px" height="141.5px" viewBox="0 0 70.75 141.5" enable-background="new 0 0 70.75 141.5" xml:space="preserve">
<path display="none" d="M83.271-22.011"/>
<g>
	<path d="M43.676,24.412l-4.085,4.087l1.321,1.323l-0.4,0.402l-1.324-1.323l-1.266,1.266l1.324,1.324l-0.403,0.403L37.52,30.57
		l-1.266,1.266l1.324,1.323l-0.403,0.403l-1.324-1.323l-1.265,1.265l1.323,1.324l-0.403,0.402l-1.324-1.323l-1.266,1.265
		l1.323,1.324l-0.402,0.402l-1.324-1.323l-1.266,1.265l1.323,1.323l-0.403,0.403l-1.323-1.323l-1.266,1.264l1.324,1.325L30.5,40.235
		l-1.325-1.324l-1.265,1.265l1.323,1.324l-0.403,0.402l-1.324-1.323l-1.265,1.265l1.323,1.324l-0.402,0.402l-1.325-1.323
		l-1.267,1.266l1.325,1.324l-0.402,0.403l-1.324-1.324l-1.356,1.357l4.258,4.258l20.863-20.863L43.676,24.412z M43.009,29.338
		c-0.444-0.445-0.444-1.167,0-1.611c0.445-0.445,1.167-0.445,1.611,0s0.444,1.167,0,1.612
		C44.176,29.783,43.453,29.783,43.009,29.338z"/>
</g>
<g>
	<path d="M43.676,94.865l-4.085,4.088l1.321,1.322l-0.4,0.402l-1.324-1.323l-1.266,1.267l1.324,1.323l-0.403,0.403l-1.323-1.324
		l-1.266,1.266l1.324,1.323l-0.403,0.403l-1.324-1.323l-1.265,1.265l1.323,1.324l-0.403,0.402l-1.324-1.323l-1.266,1.265
		l1.323,1.324l-0.402,0.402l-1.324-1.323l-1.266,1.265l1.323,1.324l-0.403,0.402l-1.323-1.323l-1.266,1.265l1.324,1.324
		l-0.402,0.402l-1.325-1.324l-1.265,1.266l1.323,1.324l-0.403,0.401l-1.324-1.323l-1.265,1.266l1.323,1.324l-0.402,0.401
		l-1.325-1.323l-1.267,1.268l1.325,1.324l-0.402,0.401l-1.324-1.323l-1.356,1.356l4.258,4.258l20.863-20.862L43.676,94.865z
		 M43.009,99.792c-0.444-0.445-0.444-1.168,0-1.611c0.445-0.445,1.167-0.445,1.611,0s0.444,1.167,0,1.611
		C44.176,100.236,43.453,100.236,43.009,99.792z"/>
</g>
<text transform="matrix(1 0 0 1 23.7173 133.1958)" font-family="'Gotham-Book'" font-size="7.0907">SALES</text>
</svg>
