<?xml version="1.0" encoding="utf-8"?>
<!-- Generator: Adobe Illustrator 16.0.4, SVG Export Plug-In . SVG Version: 6.00 Build 0)  -->
<!DOCTYPE svg PUBLIC "-//W3C//DTD SVG 1.1//EN" "http://www.w3.org/Graphics/SVG/1.1/DTD/svg11.dtd">
<svg version="1.1" id="Layer_1" xmlns="http://www.w3.org/2000/svg" xmlns:xlink="http://www.w3.org/1999/xlink" x="0px" y="0px"
	 width="70.75px" height="141.5px" viewBox="0 0 70.75 141.5" enable-background="new 0 0 70.75 141.5" xml:space="preserve">
<path display="none" d="M83.271-22.011"/>
<g>
	<g>
		<rect x="20.989" y="27.61" width="5.494" height="24.167"/>
	</g>
	<g>
		<rect x="28.896" y="36.154" width="5.493" height="15.624"/>
	</g>
	<g>
		<rect x="43.759" y="45.228" width="5.492" height="6.55"/>
	</g>
	<g>
		<rect x="36.902" y="23.705" width="5.492" height="28.073"/>
	</g>
</g>
<g>
	<g>
		<rect x="20.989" y="95.946" width="5.494" height="24.169"/>
	</g>
	<g>
		<rect x="28.896" y="104.49" width="5.493" height="15.625"/>
	</g>
	<g>
		<rect x="43.759" y="113.563" width="5.492" height="6.549"/>
	</g>
	<g>
		<rect x="36.902" y="92.041" width="5.492" height="28.074"/>
	</g>
</g>
<g>
	<path d="M14.054,128.229h0.567l1.81,2.711l1.809-2.711h0.568v4.967h-0.561v-4.022l-1.81,2.66h-0.028l-1.81-2.652v4.016h-0.546
		L14.054,128.229L14.054,128.229z"/>
	<path d="M22.046,128.194h0.525l2.263,5.002h-0.603l-0.582-1.312h-2.703l-0.589,1.312h-0.575L22.046,128.194z M23.43,131.38
		l-1.128-2.533l-1.135,2.533H23.43z"/>
	<path d="M25.81,128.229h2.135c0.61,0,1.1,0.185,1.412,0.497c0.241,0.24,0.383,0.589,0.383,0.979v0.016
		c0,0.822-0.568,1.306-1.348,1.447l1.525,2.029H29.23l-1.44-1.931h-1.419v1.931H25.81V128.229z M27.896,130.763
		c0.745,0,1.277-0.383,1.277-1.021v-0.015c0-0.61-0.468-0.979-1.27-0.979h-1.532v2.017L27.896,130.763L27.896,130.763z"/>
	<path d="M30.937,128.229h0.561v2.966l2.852-2.966h0.724l-2.128,2.171l2.221,2.797h-0.702l-1.909-2.406l-1.057,1.071v1.335h-0.561
		L30.937,128.229L30.937,128.229z"/>
	<path d="M36.034,128.229h3.591v0.511h-3.029v1.696h2.711v0.511h-2.711v1.738h3.064v0.512h-3.626V128.229z"/>
	<path d="M42.098,128.748h-1.666v-0.519h3.901v0.519h-1.667v4.448h-0.568V128.748z"/>
	<path d="M45.43,128.229h0.562v4.967H45.43V128.229z"/>
	<path d="M47.441,128.229h0.525l3.129,3.979v-3.979h0.547v4.967h-0.447l-3.206-4.071v4.071h-0.548V128.229z"/>
	<path d="M52.824,130.728v-0.016c0-1.361,1.001-2.567,2.49-2.567c0.838,0,1.354,0.241,1.853,0.66l-0.362,0.426
		c-0.383-0.334-0.809-0.567-1.512-0.567c-1.1,0-1.887,0.93-1.887,2.037v0.014c0,1.185,0.759,2.063,1.965,2.063
		c0.568,0,1.093-0.22,1.434-0.495v-1.234h-1.512v-0.504h2.051v1.979c-0.461,0.411-1.156,0.76-1.992,0.76
		C53.789,133.281,52.824,132.146,52.824,130.728z"/>
</g>
</svg>
