<?xml version="1.0" encoding="utf-8"?>
<!-- Generator: Adobe Illustrator 16.0.4, SVG Export Plug-In . SVG Version: 6.00 Build 0)  -->
<!DOCTYPE svg PUBLIC "-//W3C//DTD SVG 1.1//EN" "http://www.w3.org/Graphics/SVG/1.1/DTD/svg11.dtd">
<svg version="1.1" id="Layer_1" xmlns="http://www.w3.org/2000/svg" xmlns:xlink="http://www.w3.org/1999/xlink" x="0px" y="0px"
	 width="70.75px" height="141.5px" viewBox="0 0 70.75 141.5" enable-background="new 0 0 70.75 141.5" xml:space="preserve">
<path display="none" d="M83.271-22.011"/>
<path fill="#1A1A1A" d="M35.451,24.05c-7.654,0-13.861,6.206-13.861,13.86c0,7.655,6.207,13.861,13.861,13.861
	c7.656,0,13.859-6.206,13.859-13.861C49.312,30.256,43.107,24.05,35.451,24.05z M36.078,45.705v1.446
	c0,0.319-0.26,0.577-0.579,0.577s-0.577-0.259-0.577-0.577v-1.446c-2.385-0.211-3.959-1.686-3.959-3.834
	c0-0.317,0.26-0.577,0.577-0.577c0.318,0,0.577,0.26,0.577,0.577c0,2.005,1.747,2.723,3.382,2.723c1.636,0,3.383-0.716,3.383-2.723
	c0-1.576-0.672-1.979-3.01-3.131l-1.252-0.62c-2.28-1.125-3.657-1.804-3.657-4.171c0-2.161,1.575-3.649,3.96-3.861V28.67
	c0-0.319,0.259-0.577,0.578-0.577c0.318,0,0.579,0.259,0.579,0.577v1.42c2.354,0.213,3.906,1.702,3.906,3.861
	c0,0.319-0.26,0.577-0.576,0.577c-0.321,0-0.578-0.258-0.578-0.577c0-2.027-1.723-2.749-3.33-2.749
	c-1.636,0-3.382,0.721-3.382,2.749c0,1.578,0.674,1.981,3.012,3.134l1.253,0.621c2.279,1.124,3.654,1.801,3.654,4.166
	C40.037,44.018,38.462,45.496,36.078,45.705z"/>
<path fill="#1A1A1A" d="M35.451,92.264c-7.654,0-13.861,6.206-13.861,13.86c0,7.653,6.207,13.86,13.861,13.86
	c7.656,0,13.859-6.207,13.859-13.86C49.311,98.47,43.107,92.264,35.451,92.264z M36.078,113.919v1.445
	c0,0.319-0.26,0.577-0.579,0.577s-0.577-0.26-0.577-0.577v-1.445c-2.385-0.211-3.959-1.687-3.959-3.834
	c0-0.317,0.26-0.577,0.577-0.577c0.318,0,0.577,0.26,0.577,0.577c0,2.005,1.747,2.724,3.382,2.724c1.636,0,3.383-0.718,3.383-2.724
	c0-1.576-0.672-1.979-3.01-3.132l-1.252-0.62c-2.28-1.125-3.657-1.806-3.657-4.171c0-2.161,1.575-3.648,3.96-3.86v-1.418
	c0-0.319,0.259-0.577,0.578-0.577c0.318,0,0.579,0.26,0.579,0.577v1.421c2.354,0.213,3.906,1.7,3.906,3.86
	c0,0.317-0.26,0.576-0.576,0.576c-0.321,0-0.578-0.259-0.578-0.576c0-2.026-1.723-2.749-3.33-2.749
	c-1.636,0-3.382,0.721-3.382,2.749c0,1.578,0.674,1.979,3.012,3.133l1.253,0.621c2.279,1.124,3.654,1.802,3.654,4.166
	C40.037,112.232,38.462,113.71,36.078,113.919z"/>
<g>
	<path d="M24.146,132.473l0.348-0.412c0.518,0.469,1.015,0.703,1.703,0.703c0.667,0,1.107-0.354,1.107-0.846v-0.014
		c0-0.463-0.249-0.725-1.292-0.944c-1.143-0.248-1.667-0.617-1.667-1.433v-0.016c0-0.779,0.688-1.354,1.632-1.354
		c0.724,0,1.242,0.206,1.746,0.61l-0.327,0.433c-0.461-0.376-0.922-0.539-1.433-0.539c-0.646,0-1.057,0.354-1.057,0.802v0.016
		c0,0.467,0.255,0.729,1.348,0.965c1.107,0.24,1.618,0.646,1.618,1.404v0.014c0,0.853-0.709,1.406-1.696,1.406
		C25.388,133.268,24.743,133.004,24.146,132.473z"/>
	<path d="M30.742,128.193h0.525l2.263,5.002h-0.603l-0.582-1.312h-2.703l-0.589,1.312h-0.575L30.742,128.193z M32.126,131.379
		l-1.128-2.533l-1.135,2.533H32.126z"/>
	<path d="M34.506,128.229h0.561v4.449h2.794v0.519h-3.355V128.229z"/>
	<path d="M38.895,128.229h3.592v0.512h-3.03v1.695h2.711v0.512h-2.711v1.738h3.065v0.511h-3.627V128.229z"/>
	<path d="M43.318,132.473l0.349-0.412c0.519,0.469,1.015,0.703,1.703,0.703c0.667,0,1.106-0.354,1.106-0.846v-0.014
		c0-0.463-0.248-0.725-1.291-0.944c-1.144-0.248-1.668-0.617-1.668-1.433v-0.016c0-0.779,0.688-1.354,1.633-1.354
		c0.724,0,1.24,0.206,1.744,0.61l-0.326,0.433c-0.461-0.376-0.922-0.539-1.434-0.539c-0.646,0-1.058,0.354-1.058,0.802v0.016
		c0,0.467,0.256,0.729,1.349,0.965c1.106,0.24,1.618,0.646,1.618,1.404v0.014c0,0.853-0.71,1.406-1.696,1.406
		C44.562,133.268,43.915,133.004,43.318,132.473z"/>
</g>
</svg>
