<svg xmlns="http://www.w3.org/2000/svg" xmlns:xlink="http://www.w3.org/1999/xlink" preserveAspectRatio="xMidYMid" width="18" height="18" viewBox="0 0 18 18">
  <defs>
    <style>

      .cls-2 {
        fill: #ffffff;
        opacity: 0.55;
      }
    </style>
  </defs>
  <path d="M17.977,14.478 C17.975,16.423 16.390,17.998 14.437,17.998 C10.808,17.999 7.178,17.999 3.549,17.998 C1.596,17.998 0.011,16.424 0.009,14.478 C0.007,11.880 0.009,9.281 0.009,6.683 C0.009,6.605 0.009,6.527 0.009,6.437 C1.755,6.437 3.473,6.437 5.227,6.437 C4.396,7.694 4.169,9.028 4.601,10.445 C4.911,11.459 5.524,12.267 6.405,12.866 C8.140,14.045 10.495,13.878 12.036,12.500 C13.587,11.114 14.198,8.607 12.740,6.436 C14.495,6.436 16.222,6.436 17.977,6.436 C17.977,6.527 17.977,6.604 17.977,6.682 C17.977,9.280 17.979,11.879 17.977,14.478 ZM8.991,5.550 C10.948,5.552 12.535,7.143 12.526,9.092 C12.516,11.056 10.946,12.610 8.971,12.609 C7.013,12.609 5.418,11.017 5.428,9.072 C5.437,7.125 7.033,5.547 8.991,5.550 ZM8.974,11.688 C10.404,11.696 11.599,10.528 11.602,9.119 C11.604,7.649 10.457,6.486 9.002,6.483 C7.571,6.479 6.388,7.633 6.385,9.036 C6.381,10.503 7.529,11.679 8.974,11.688 ZM12.451,5.870 C12.337,5.870 12.197,5.810 12.113,5.732 C10.322,4.087 7.583,4.100 5.817,5.765 C5.756,5.823 5.656,5.872 5.575,5.872 C3.764,5.878 1.953,5.876 0.142,5.876 C0.106,5.876 0.070,5.869 0.030,5.866 C0.023,5.833 0.011,5.806 0.011,5.778 C0.017,4.890 -0.001,4.002 0.039,3.116 C0.080,2.210 0.719,1.178 1.512,0.660 C1.512,1.930 1.512,3.181 1.512,4.445 C1.758,4.445 1.974,4.445 2.228,4.445 C2.228,4.362 2.228,4.279 2.228,4.196 C2.228,3.002 2.228,1.808 2.228,0.615 C2.228,0.213 2.301,0.142 2.752,0.122 C2.752,1.554 2.752,2.985 2.752,4.437 C2.998,4.437 3.226,4.437 3.479,4.437 C3.479,2.970 3.479,1.504 3.479,0.020 C3.651,0.020 3.799,0.020 3.973,0.020 C3.973,1.487 3.973,2.953 3.973,4.438 C4.226,4.438 4.454,4.438 4.707,4.438 C4.707,2.970 4.707,1.503 4.707,0.002 C4.822,0.002 4.913,0.002 5.005,0.002 C8.153,0.002 11.300,0.002 14.448,0.003 C16.350,0.003 17.930,1.528 17.974,3.424 C17.993,4.230 17.977,5.038 17.977,5.863 C17.892,5.868 17.822,5.876 17.752,5.876 C15.985,5.877 14.218,5.879 12.451,5.870 ZM16.339,2.069 C16.334,1.740 16.131,1.501 15.807,1.494 C15.150,1.480 14.493,1.480 13.836,1.494 C13.509,1.502 13.306,1.739 13.304,2.067 C13.302,2.707 13.301,3.348 13.304,3.988 C13.306,4.335 13.532,4.565 13.876,4.567 C14.504,4.571 15.132,4.571 15.760,4.567 C16.106,4.565 16.335,4.335 16.339,3.991 C16.343,3.671 16.339,3.351 16.339,3.030 C16.339,2.710 16.343,2.390 16.339,2.069 Z" id="path-1" class="cls-2" fill-rule="evenodd"/>
</svg>
