<svg xmlns="http://www.w3.org/2000/svg" xmlns:xlink="http://www.w3.org/1999/xlink" preserveAspectRatio="xMidYMid" width="19" height="16" viewBox="0 0 19 16">
  <defs>
    <style>

      .cls-2 {
        fill: #ffffff;
        opacity: 0.5;
      }
    </style>
  </defs>
  <path d="M19.007,1.889 C18.308,2.211 17.556,2.427 16.767,2.525 C17.572,2.025 18.191,1.234 18.482,0.291 C17.729,0.754 16.894,1.089 16.005,1.271 C15.294,0.485 14.280,-0.005 13.158,-0.005 C11.004,-0.005 9.258,1.804 9.258,4.035 C9.258,4.351 9.292,4.660 9.359,4.956 C6.117,4.787 3.243,3.179 1.319,0.734 C0.983,1.332 0.791,2.025 0.791,2.765 C0.791,4.167 1.480,5.403 2.526,6.128 C1.887,6.107 1.285,5.925 0.760,5.622 C0.759,5.640 0.759,5.657 0.759,5.673 C0.759,7.630 2.104,9.264 3.888,9.635 C3.561,9.728 3.216,9.777 2.860,9.777 C2.609,9.777 2.365,9.751 2.126,9.705 C2.623,11.309 4.064,12.478 5.770,12.510 C4.435,13.593 2.754,14.239 0.926,14.239 C0.611,14.239 0.301,14.220 -0.004,14.183 C1.722,15.328 3.772,15.998 5.975,15.998 C13.149,15.998 17.072,9.842 17.072,4.504 C17.072,4.328 17.069,4.154 17.061,3.981 C17.823,3.410 18.484,2.700 19.007,1.889 Z" id="path-1" class="cls-2" fill-rule="evenodd"/>
</svg>
