<svg xmlns="http://www.w3.org/2000/svg" xmlns:xlink="http://www.w3.org/1999/xlink" preserveAspectRatio="xMidYMid" width="9" height="19" viewBox="0 0 9 19">
  <defs>
    <style>

      .cls-2 {
        fill: #ffffff;
        opacity: 0.55;
      }
    </style>
  </defs>
  <path d="M5.983,19.008 C5.983,19.008 1.998,19.008 1.998,19.008 C1.998,19.008 1.998,9.503 1.998,9.503 C1.998,9.503 0.006,9.503 0.006,9.503 C0.006,9.503 0.006,6.227 0.006,6.227 C0.006,6.227 1.998,6.227 1.998,6.227 C1.998,6.227 1.998,4.260 1.998,4.260 C1.998,1.589 3.122,-0.001 6.316,-0.001 C6.316,-0.001 8.976,-0.001 8.976,-0.001 C8.976,-0.001 8.976,3.275 8.976,3.275 C8.976,3.275 7.315,3.275 7.315,3.275 C6.070,3.275 5.988,3.733 5.988,4.588 C5.988,4.588 5.983,6.227 5.983,6.227 C5.983,6.227 8.995,6.227 8.995,6.227 C8.995,6.227 8.643,9.503 8.643,9.503 C8.643,9.503 5.983,9.503 5.983,9.503 C5.983,9.503 5.983,19.008 5.983,19.008 Z" id="path-1" class="cls-2" fill-rule="evenodd"/>
</svg>
