<?xml version="1.0" encoding="utf-8"?>
<!-- Generator: Adobe Illustrator 18.1.1, SVG Export Plug-In . SVG Version: 6.00 Build 0)  -->
<svg version="1.1" xmlns="http://www.w3.org/2000/svg" xmlns:xlink="http://www.w3.org/1999/xlink" x="0px" y="0px"
	 viewBox="0 0 132.1 211.3" enable-background="new 0 0 132.1 211.3" xml:space="preserve">
<g id="Layer_1">
	<g>
		<g>
			<g>
				<path fill="#3E432E" d="M14,189.3h4.3V202h7.6v3.7H14V189.3z"/>
				<path fill="#3E432E" d="M44.7,188.9c5.2,0,8.1,3.8,8.1,8.5c0,4.7-2.9,8.5-8.1,8.5c-5.2,0-8.1-3.8-8.1-8.5
					C36.6,192.7,39.5,188.9,44.7,188.9z M44.7,202.3c2.8,0,3.8-2.4,3.8-4.9c0-2.4-1.1-4.9-3.8-4.9c-2.8,0-3.8,2.4-3.8,4.9
					C40.9,199.9,41.9,202.3,44.7,202.3z"/>
				<path fill="#3E432E" d="M64.2,189.3h12.1v3.4h-7.8v3.3h6.7v3.3h-6.7v6.3h-4.3V189.3z"/>
				<path fill="#3E432E" d="M100.4,192.9h-4.9v12.7h-4.3v-12.7h-4.9v-3.7h14V192.9z"/>
				<path fill="#3E432E" d="M114.8,200.1c0.1,1.9,1.3,2.5,3.1,2.5c1.3,0,2.6-0.5,2.6-1.7c0-1.4-2.3-1.7-4.7-2.4
					c-2.3-0.7-4.8-1.7-4.8-4.7c0-3.6,3.6-5,6.7-5c3.3,0,6.5,1.6,6.6,5.3H120c0.1-1.5-1.3-2-2.6-2c-0.9,0-2.1,0.3-2.1,1.4
					c0,1.3,2.4,1.5,4.7,2.2c2.4,0.7,4.7,1.8,4.7,4.7c0,4.2-3.5,5.5-7.1,5.5c-3.8,0-7.1-1.7-7.1-5.8H114.8z"/>
			</g>
		</g>
		<path fill="#3E432E" d="M18.6,15.3h-8.1V7.5h51.6v18.7h-7.7V15.3H27.9v18.5H51v7.8H27.9v20.3h26.5V50.6h7.7v19.2H10.5v-7.8h8.1
			V15.3z"/>
		<path fill="#3E432E" d="M79.3,90.1h-8.1v-7.8h51.6V101h-7.7V90.1H88.6v18.5h23.1v7.8H88.6v20.3h26.5v-11.4h7.7v19.2H71.2v-7.8h8.1
			V90.1z"/>
		<path fill="#3E432E" d="M68.2,14.9V7.1h29.2c24,0,31.6,15.5,31.6,30.4c0,20-10.2,31.6-32.5,31.6H68.2v-7.8h8.4V14.9H68.2z
			 M85.9,61.4h11c17.2,0,22.6-10.5,22.6-23.6c0-13.3-6.6-23-22.4-23H85.9V61.4z"/>
		<path fill="#3E432E" d="M68.7,138.9c0.5,22-14.9,30.2-30.6,30.2c-25.7,0-32-19.6-32-31.4c0-14,8.4-30.9,30.4-30.9
			c8.6,0,14.8,2.3,21.1,7.6v-6.7h7.7v19.8h-7.7c-3.5-7.6-11.5-12.8-20.3-12.8c-12.6,0-21.3,9.4-21.3,23c0,13.5,9.3,23.3,22.2,23.3
			c10,0,18-6,19.4-14.6H46.7v-7.5H68.7z"/>
		<rect x="13" y="82.2" fill="#009444" width="51.5" height="8.2"/>
		<rect x="71.4" y="158.4" fill="#82C341" width="51.5" height="8.2"/>
	</g>
</g>
<g id="Layer_1_copy" display="none">
	<g display="inline">
		<g>
			<g>
				<path d="M14,189.3h4.3V202h7.6v3.7H14V189.3z"/>
				<path d="M44.7,188.9c5.2,0,8.1,3.8,8.1,8.5c0,4.7-2.9,8.5-8.1,8.5c-5.2,0-8.1-3.8-8.1-8.5C36.6,192.7,39.5,188.9,44.7,188.9z
					 M44.7,202.3c2.8,0,3.8-2.4,3.8-4.9c0-2.4-1.1-4.9-3.8-4.9c-2.8,0-3.8,2.4-3.8,4.9C40.9,199.9,41.9,202.3,44.7,202.3z"/>
				<path d="M64.2,189.3h12.1v3.4h-7.8v3.3h6.7v3.3h-6.7v6.3h-4.3V189.3z"/>
				<path d="M100.4,192.9h-4.9v12.7h-4.3v-12.7h-4.9v-3.7h14V192.9z"/>
				<path d="M114.8,200.1c0.1,1.9,1.3,2.5,3.1,2.5c1.3,0,2.6-0.5,2.6-1.7c0-1.4-2.3-1.7-4.7-2.4c-2.3-0.7-4.8-1.7-4.8-4.7
					c0-3.6,3.6-5,6.7-5c3.3,0,6.5,1.6,6.6,5.3H120c0.1-1.5-1.3-2-2.6-2c-0.9,0-2.1,0.3-2.1,1.4c0,1.3,2.4,1.5,4.7,2.2
					c2.4,0.7,4.7,1.8,4.7,4.7c0,4.2-3.5,5.5-7.1,5.5c-3.8,0-7.1-1.7-7.1-5.8H114.8z"/>
			</g>
		</g>
		<path d="M18.6,15.3h-8.1V7.5h51.6v18.7h-7.7V15.3H27.9v18.5H51v7.8H27.9v20.3h26.5V50.6h7.7v19.2H10.5v-7.8h8.1V15.3z"/>
		<path d="M79.3,90.1h-8.1v-7.8h51.6V101h-7.7V90.1H88.6v18.5h23.1v7.8H88.6v20.3h26.5v-11.4h7.7v19.2H71.2v-7.8h8.1V90.1z"/>
		<path d="M68.2,14.9V7.1h29.2c24,0,31.6,15.5,31.6,30.4c0,20-10.2,31.6-32.5,31.6H68.2v-7.8h8.4V14.9H68.2z M85.9,61.4h11
			c17.2,0,22.6-10.5,22.6-23.6c0-13.3-6.6-23-22.4-23H85.9V61.4z"/>
		<path d="M68.7,138.9c0.5,22-14.9,30.2-30.6,30.2c-25.7,0-32-19.6-32-31.4c0-14,8.4-30.9,30.4-30.9c8.6,0,14.8,2.3,21.1,7.6v-6.7
			h7.7v19.8h-7.7c-3.5-7.6-11.5-12.8-20.3-12.8c-12.6,0-21.3,9.4-21.3,23c0,13.5,9.3,23.3,22.2,23.3c10,0,18-6,19.4-14.6H46.7v-7.5
			H68.7z"/>
		<rect x="13" y="82.2" width="51.5" height="8.2"/>
		<rect x="71.4" y="158.4" width="51.5" height="8.2"/>
	</g>
</g>
<g id="Layer_1_copy_2" display="none">
	<rect x="-40.5" y="-37.5" display="inline" width="216" height="288"/>
	<g display="inline">
		<g>
			<g>
				<path fill="#FFFFFF" d="M14,189.3h4.3V202h7.6v3.7H14V189.3z"/>
				<path fill="#FFFFFF" d="M44.7,188.9c5.2,0,8.1,3.8,8.1,8.5c0,4.7-2.9,8.5-8.1,8.5c-5.2,0-8.1-3.8-8.1-8.5
					C36.6,192.7,39.5,188.9,44.7,188.9z M44.7,202.3c2.8,0,3.8-2.4,3.8-4.9c0-2.4-1.1-4.9-3.8-4.9c-2.8,0-3.8,2.4-3.8,4.9
					C40.9,199.9,41.9,202.3,44.7,202.3z"/>
				<path fill="#FFFFFF" d="M64.2,189.3h12.1v3.4h-7.8v3.3h6.7v3.3h-6.7v6.3h-4.3V189.3z"/>
				<path fill="#FFFFFF" d="M100.4,192.9h-4.9v12.7h-4.3v-12.7h-4.9v-3.7h14V192.9z"/>
				<path fill="#FFFFFF" d="M114.8,200.1c0.1,1.9,1.3,2.5,3.1,2.5c1.3,0,2.6-0.5,2.6-1.7c0-1.4-2.3-1.7-4.7-2.4
					c-2.3-0.7-4.8-1.7-4.8-4.7c0-3.6,3.6-5,6.7-5c3.3,0,6.5,1.6,6.6,5.3H120c0.1-1.5-1.3-2-2.6-2c-0.9,0-2.1,0.3-2.1,1.4
					c0,1.3,2.4,1.5,4.7,2.2c2.4,0.7,4.7,1.8,4.7,4.7c0,4.2-3.5,5.5-7.1,5.5c-3.8,0-7.1-1.7-7.1-5.8H114.8z"/>
			</g>
		</g>
		<path fill="#FFFFFF" d="M18.6,15.3h-8.1V7.5h51.6v18.7h-7.7V15.3H27.9v18.5H51v7.8H27.9v20.3h26.5V50.6h7.7v19.2H10.5v-7.8h8.1
			V15.3z"/>
		<path fill="#FFFFFF" d="M79.3,90.1h-8.1v-7.8h51.6V101h-7.7V90.1H88.6v18.5h23.1v7.8H88.6v20.3h26.5v-11.4h7.7v19.2H71.2v-7.8h8.1
			V90.1z"/>
		<path fill="#FFFFFF" d="M68.2,14.9V7.1h29.2c24,0,31.6,15.5,31.6,30.4c0,20-10.2,31.6-32.5,31.6H68.2v-7.8h8.4V14.9H68.2z
			 M85.9,61.4h11c17.2,0,22.6-10.5,22.6-23.6c0-13.3-6.6-23-22.4-23H85.9V61.4z"/>
		<path fill="#FFFFFF" d="M68.7,138.9c0.5,22-14.9,30.2-30.6,30.2c-25.7,0-32-19.6-32-31.4c0-14,8.4-30.9,30.4-30.9
			c8.6,0,14.8,2.3,21.1,7.6v-6.7h7.7v19.8h-7.7c-3.5-7.6-11.5-12.8-20.3-12.8c-12.6,0-21.3,9.4-21.3,23c0,13.5,9.3,23.3,22.2,23.3
			c10,0,18-6,19.4-14.6H46.7v-7.5H68.7z"/>
		<rect x="13" y="82.2" fill="#FFFFFF" width="51.5" height="8.2"/>
		<rect x="71.4" y="158.4" fill="#FFFFFF" width="51.5" height="8.2"/>
	</g>
</g>
<g id="Layer_1_copy_3" display="none">
	<rect x="-40.5" y="-37.5" display="inline" width="216" height="288"/>
	<g display="inline">
		<g>
			<g>
				<path fill="#FFFFFF" d="M14,189.3h4.3V202h7.6v3.7H14V189.3z"/>
				<path fill="#FFFFFF" d="M44.7,188.9c5.2,0,8.1,3.8,8.1,8.5c0,4.7-2.9,8.5-8.1,8.5c-5.2,0-8.1-3.8-8.1-8.5
					C36.6,192.7,39.5,188.9,44.7,188.9z M44.7,202.3c2.8,0,3.8-2.4,3.8-4.9c0-2.4-1.1-4.9-3.8-4.9c-2.8,0-3.8,2.4-3.8,4.9
					C40.9,199.9,41.9,202.3,44.7,202.3z"/>
				<path fill="#FFFFFF" d="M64.2,189.3h12.1v3.4h-7.8v3.3h6.7v3.3h-6.7v6.3h-4.3V189.3z"/>
				<path fill="#FFFFFF" d="M100.4,192.9h-4.9v12.7h-4.3v-12.7h-4.9v-3.7h14V192.9z"/>
				<path fill="#FFFFFF" d="M114.8,200.1c0.1,1.9,1.3,2.5,3.1,2.5c1.3,0,2.6-0.5,2.6-1.7c0-1.4-2.3-1.7-4.7-2.4
					c-2.3-0.7-4.8-1.7-4.8-4.7c0-3.6,3.6-5,6.7-5c3.3,0,6.5,1.6,6.6,5.3H120c0.1-1.5-1.3-2-2.6-2c-0.9,0-2.1,0.3-2.1,1.4
					c0,1.3,2.4,1.5,4.7,2.2c2.4,0.7,4.7,1.8,4.7,4.7c0,4.2-3.5,5.5-7.1,5.5c-3.8,0-7.1-1.7-7.1-5.8H114.8z"/>
			</g>
		</g>
		<path fill="#FFFFFF" d="M18.6,15.3h-8.1V7.5h51.6v18.7h-7.7V15.3H27.9v18.5H51v7.8H27.9v20.3h26.5V50.6h7.7v19.2H10.5v-7.8h8.1
			V15.3z"/>
		<path fill="#FFFFFF" d="M79.3,90.1h-8.1v-7.8h51.6V101h-7.7V90.1H88.6v18.5h23.1v7.8H88.6v20.3h26.5v-11.4h7.7v19.2H71.2v-7.8h8.1
			V90.1z"/>
		<path fill="#FFFFFF" d="M68.2,14.9V7.1h29.2c24,0,31.6,15.5,31.6,30.4c0,20-10.2,31.6-32.5,31.6H68.2v-7.8h8.4V14.9H68.2z
			 M85.9,61.4h11c17.2,0,22.6-10.5,22.6-23.6c0-13.3-6.6-23-22.4-23H85.9V61.4z"/>
		<path fill="#FFFFFF" d="M68.7,138.9c0.5,22-14.9,30.2-30.6,30.2c-25.7,0-32-19.6-32-31.4c0-14,8.4-30.9,30.4-30.9
			c8.6,0,14.8,2.3,21.1,7.6v-6.7h7.7v19.8h-7.7c-3.5-7.6-11.5-12.8-20.3-12.8c-12.6,0-21.3,9.4-21.3,23c0,13.5,9.3,23.3,22.2,23.3
			c10,0,18-6,19.4-14.6H46.7v-7.5H68.7z"/>
		<rect x="13" y="82.2" fill="#009444" width="51.5" height="8.2"/>
		<rect x="71.4" y="158.4" fill="#82C341" width="51.5" height="8.2"/>
	</g>
</g>
</svg>
