<svg xmlns="http://www.w3.org/2000/svg" viewBox="0 0 132.1 211.3"><g fill="#3E432E"><path d="M14 189.3h4.3V202h7.6v3.7H14v-16.4zM44.7 188.9c5.2 0 8.1 3.8 8.1 8.5s-2.9 8.5-8.1 8.5c-5.2 0-8.1-3.8-8.1-8.5s2.9-8.5 8.1-8.5zm0 13.4c2.8 0 3.8-2.4 3.8-4.9 0-2.4-1.1-4.9-3.8-4.9-2.8 0-3.8 2.4-3.8 4.9 0 2.5 1 4.9 3.8 4.9zM64.2 189.3h12.1v3.4h-7.8v3.3h6.7v3.3h-6.7v6.3h-4.3v-16.3zM100.4 192.9h-4.9v12.7h-4.3v-12.7h-4.9v-3.7h14v3.7zM114.8 200.1c.1 1.9 1.3 2.5 3.1 2.5 1.3 0 2.6-.5 2.6-1.7 0-1.4-2.3-1.7-4.7-2.4-2.3-.7-4.8-1.7-4.8-4.7 0-3.6 3.6-5 6.7-5 3.3 0 6.5 1.6 6.6 5.3H120c.1-1.5-1.3-2-2.6-2-.9 0-2.1.3-2.1 1.4 0 1.3 2.4 1.5 4.7 2.2 2.4.7 4.7 1.8 4.7 4.7 0 4.2-3.5 5.5-7.1 5.5-3.8 0-7.1-1.7-7.1-5.8h4.3z"/></g><path fill="#3E432E" d="M18.6 15.3h-8.1V7.5h51.6v18.7h-7.7V15.3H27.9v18.5H51v7.8H27.9v20.3h26.5V50.6h7.7v19.2H10.5V62h8.1V15.3zM79.3 90.1h-8.1v-7.8h51.6V101h-7.7V90.1H88.6v18.5h23.1v7.8H88.6v20.3h26.5v-11.4h7.7v19.2H71.2v-7.8h8.1V90.1zM68.2 14.9V7.1h29.2c24 0 31.6 15.5 31.6 30.4 0 20-10.2 31.6-32.5 31.6H68.2v-7.8h8.4V14.9h-8.4zm17.7 46.5h11c17.2 0 22.6-10.5 22.6-23.6 0-13.3-6.6-23-22.4-23H85.9v46.6zM68.7 138.9c.5 22-14.9 30.2-30.6 30.2-25.7 0-32-19.6-32-31.4 0-14 8.4-30.9 30.4-30.9 8.6 0 14.8 2.3 21.1 7.6v-6.7h7.7v19.8h-7.7c-3.5-7.6-11.5-12.8-20.3-12.8-12.6 0-21.3 9.4-21.3 23 0 13.5 9.3 23.3 22.2 23.3 10 0 18-6 19.4-14.6H46.7v-7.5h22z"/><path fill="#009444" d="M13 82.2h51.5v8.2H13z"/><path fill="#82C341" d="M71.4 158.4h51.5v8.2H71.4z"/></svg>