<svg xmlns="http://www.w3.org/2000/svg" viewBox="0 0 612 792"><g fill="#4B4F54"><path d="M103.9 534.4c-.4 0-.8-.4-.8-.8v-2c-1.4 1.9-3.5 3-6 3-4.7 0-8.3-3.8-8.3-8.5 0-4.6 3.6-8.4 8.1-8.4s6.2 3.3 6.2 3.3v-2.5c0-.4.4-.8.8-.8h1.7c1.3 0 1.3 2 0 2h-.4v12.7h.4c1.3 0 1.3 2 0 2h-1.7zM97 519.6c-3.5 0-6.2 2.9-6.2 6.4 0 3.4 2.4 6.5 6.3 6.5 2.1 0 6.3-1.6 6.3-6.4-.1-3.4-2.7-6.5-6.4-6.5zM129.7 517.6c4.8 0 6.9 3.1 6.9 7.3v7.4h.6c1.3 0 1.3 2 0 2H134c-1.3 0-1.3-2 0-2h.6v-7.4c0-3.1-1.4-5.3-4.9-5.3-3.2 0-5.7 1.8-5.7 5.7v7.1h.6c1.3 0 1.3 2 0 2h-3.2c-1.3 0-1.3-2 0-2h.6v-12.7h-.7c-1.3 0-1.3-2 0-2h2c.4 0 .8.4.8.8v1.8c1.2-2 3.4-2.7 5.6-2.7zM149.9 534.5c-5 0-8.6-3.8-8.6-8.5 0-4.6 3.6-8.6 8.2-8.6 4.5 0 7.4 3.8 7.5 8.4 0 .6-.3 1.2-1 1.2h-12.7c.5 3.2 3.3 5.4 6.5 5.4 1.2 0 2.9-.3 3.9-.8.8-.4 1.2-.1 1.4.3.2.4.1 1.1-.4 1.4-1.2.8-3.3 1.2-4.8 1.2zm-6.5-9.4H155c-.5-3.2-2.4-5.6-5.5-5.6-3.1-.1-5.6 2.5-6.1 5.6zM171.6 518.6c.2-.5.6-.7 1-.7s.7.2.9.7l4.4 13.4 4.2-12.4h-.5c-1.3 0-1.3-2 0-2h3.5c1.3 0 1.3 2 0 2h-.8l-5 13.5c-.5.9-.8 1.2-1.5 1.2-.9 0-1.3-.9-1.4-1.2l-3.7-11.6-4.1 11.7c-.2.6-.8 1.1-1.4 1.1-.5 0-1.2-.2-1.6-1.1l-5-13.6h-.6c-1.3 0-1.3-2 0-2h3.2c1.3 0 1.3 2 0 2h-.5l4.2 12.5 4.7-13.5zM213.2 531.8c-1.4 1.9-4.3 2.7-6.5 2.7-4.3 0-8.3-3.6-8.3-8.1 0-5.9 4.3-8.9 8.3-8.9 2 0 4.2.7 5 2.2v-.7c0-.6.4-.9.9-.9s.9.3.9.9v3.5c0 .6-.4.9-.9.9s-.7-.4-.9-1c-.4-1.8-2.8-2.7-5-2.7-3 0-6.4 1.9-6.4 6.9 0 3.3 3.2 6 6.4 6 1.8 0 3.8-.5 4.9-2 .3-.4 1-.5 1.4-.2.5.3.6.9.2 1.4zM231.3 519.6c-1.3 0-1.3-2 0-2h1.9c.4 0 .8.4.8.8v14h.8c1.3 0 1.3 2 0 2h-2c-.4 0-.8-.4-.8-.8v-1.8c-1.3 1.9-3.5 2.6-5.7 2.6-4.8 0-7.2-3.1-7.2-7.3v-7.4h-.7c-1.3 0-1.3-2 0-2h1.9c.4 0 .8.4.8.8v8.7c0 3.1 1.6 5.3 5.1 5.3 3.2 0 5.7-1.8 5.7-5.7v-7.1h-.6zM240.4 512c-1.3 0-1.3-2 0-2h2.3c.4 0 .8.4.8.8v21.6h.9c1.3 0 1.3 2 0 2h-3.8c-1.3 0-1.3-2 0-2h.9V512h-1.1zM250 517.6h1.9c.5 0 1 .4 1 1v13.8h.9c1.3 0 1.3 2 0 2H250c-1.3 0-1.3-2 0-2h.9v-12.7h-.9c-1.2-.1-1.2-2.1 0-2.1zm3.1-5.8c0 .8-.7 1.5-1.5 1.5-.9 0-1.5-.7-1.5-1.5s.6-1.5 1.5-1.5c.8 0 1.5.7 1.5 1.5zM268.2 517.6c4.8 0 6.9 3.1 6.9 7.3v7.4h.6c1.3 0 1.3 2 0 2h-3.2c-1.3 0-1.3-2 0-2h.6v-7.4c0-3.1-1.4-5.3-4.9-5.3-3.2 0-5.7 1.8-5.7 5.7v7.1h.6c1.3 0 1.3 2 0 2H260c-1.3 0-1.3-2 0-2h.6v-12.7h-.7c-1.3 0-1.3-2 0-2h2c.4 0 .8.4.8.8v1.8c1.2-2 3.4-2.7 5.5-2.7zM295 534.4c-.4 0-.8-.4-.8-.8v-2c-1.4 1.9-3.5 3-6 3-4.7 0-8.3-3.8-8.3-8.5 0-4.6 3.6-8.4 8.1-8.4s6.2 3.3 6.2 3.3v-2.5c0-.4.4-.8.8-.8h1.7c1.3 0 1.3 2 0 2h-.4v12.7h.4c1.3 0 1.3 2 0 2H295zm-6.9-14.8c-3.5 0-6.2 2.9-6.2 6.4 0 3.4 2.4 6.5 6.3 6.5 2.1 0 6.3-1.6 6.3-6.4-.1-3.4-2.7-6.5-6.4-6.5zM305.3 533.6c0 .4-.4.8-.8.8h-1.7c-1.3 0-1.3-2 0-2h.4v-12.8h-.4c-1.3 0-1.3-2 0-2h1.7c.4 0 .8.4.8.8v2c1.5-2.2 3.5-2.8 5.9-2.8.5 0 1.1.3 1.1 1 0 1-1.1 1-1.1 1h-.1c-2.6 0-5.8 1.4-5.8 5v9zM319.2 519.6l5.5 12.3.5-1 5.5-11.3h-.5c-1.3 0-1.3-2 0-2h3.2c1.3 0 1.3 2 0 2h-.4l-9.8 19.4h.5c1.3 0 1.3 2 0 2h-3.5c-1.3 0-1.3-2 0-2h.8l2.5-4.8.1-.1-6.6-14.5h-.8c-1.3 0-1.3-2 0-2h3.5c1.3 0 1.3 2 0 2h-.5zM355.7 534.5c-5 0-8.6-3.8-8.6-8.5 0-4.6 3.6-8.6 8.2-8.6 4.5 0 7.4 3.8 7.5 8.4 0 .6-.3 1.2-1 1.2h-12.7c.5 3.2 3.3 5.4 6.5 5.4 1.2 0 2.9-.3 3.9-.8.8-.4 1.2-.1 1.4.3.2.4.1 1.1-.4 1.4-1.3.8-3.4 1.2-4.8 1.2zm-6.6-9.4h11.6c-.5-3.2-2.4-5.6-5.5-5.6-3-.1-5.6 2.5-6.1 5.6zM377.9 534.4c-1.3 0-1.3-2 0-2l-4.1-5-4.2 5c1.3 0 1.3 2 0 2h-3c-1.3 0-1.3-2 0-2h.5l5.3-6.4-5.4-6.3h-.5c-1.3 0-1.3-2 0-2h3c1.3 0 1.3 2 0 2l4 4.7 4-4.7c-1.3 0-1.3-2 0-2h3c1.3 0 1.3 2 0 2h-.5l-5 6.1 5.3 6.6h.5c1.3 0 1.3 2 0 2h-2.9zM388.3 517.6c.4 0 .8.4.8.8v2.2c1.4-1.9 3.5-3.2 6-3.2 4.7 0 8.3 3.8 8.3 8.5 0 4.6-3.6 8.4-8.1 8.4s-6.2-3.3-6.2-3.3v9.1c0 .4-.4.8-.8.8h-1.7c-1.3 0-1.3-2 0-2h.4v-19.3h-.4c-1.3 0-1.3-2 0-2h1.7zm6.9 14.8c3.5 0 6.2-2.9 6.2-6.4.1-3.4-2.4-6.5-6.3-6.5-2.1 0-6.1 1.6-6.1 6.4.1 3.3 2.6 6.5 6.2 6.5zM415.5 534.5c-5 0-8.6-3.8-8.6-8.5 0-4.6 3.6-8.6 8.2-8.6 4.5 0 7.4 3.8 7.5 8.4 0 .6-.3 1.2-1 1.2h-12.7c.5 3.2 3.3 5.4 6.5 5.4 1.2 0 2.9-.3 3.9-.8.8-.4 1.2-.1 1.4.3.2.4.1 1.1-.4 1.4-1.3.8-3.4 1.2-4.8 1.2zm-6.6-9.4h11.6c-.5-3.2-2.4-5.6-5.5-5.6-3-.1-5.6 2.5-6.1 5.6zM429.7 533.6c0 .4-.4.8-.8.8h-1.7c-1.3 0-1.3-2 0-2h.4v-12.8h-.4c-1.3 0-1.3-2 0-2h1.7c.4 0 .8.4.8.8v2c1.5-2.2 3.5-2.8 5.9-2.8.5 0 1.1.3 1.1 1 0 1-1.1 1-1.1 1h-.1c-2.6 0-5.8 1.4-5.8 5v9zM441.2 517.6h1.9c.5 0 1 .4 1 1v13.8h.9c1.3 0 1.3 2 0 2h-3.8c-1.3 0-1.3-2 0-2h.9v-12.7h-.9c-1.3-.1-1.3-2.1 0-2.1zm3.1-5.8c0 .8-.7 1.5-1.5 1.5-.9 0-1.5-.7-1.5-1.5s.6-1.5 1.5-1.5c.8 0 1.5.7 1.5 1.5zM458.1 534.5c-5 0-8.6-3.8-8.6-8.5 0-4.6 3.6-8.6 8.2-8.6 4.5 0 7.4 3.8 7.5 8.4 0 .6-.3 1.2-1 1.2h-12.7c.5 3.2 3.3 5.4 6.5 5.4 1.2 0 2.9-.3 3.9-.8.8-.4 1.2-.1 1.4.3.2.4.1 1.1-.4 1.4-1.3.8-3.4 1.2-4.8 1.2zm-6.6-9.4h11.6c-.5-3.2-2.4-5.6-5.5-5.6-3-.1-5.6 2.5-6.1 5.6zM478.3 517.6c4.8 0 6.9 3.1 6.9 7.3v7.4h.6c1.3 0 1.3 2 0 2h-3.2c-1.3 0-1.3-2 0-2h.6v-7.4c0-3.1-1.4-5.3-4.9-5.3-3.2 0-5.7 1.8-5.7 5.7v7.1h.6c1.3 0 1.3 2 0 2H470c-1.3 0-1.3-2 0-2h.6v-12.7h-.7c-1.3 0-1.3-2 0-2h2c.4 0 .8.4.8.8v1.8c1.2-2 3.5-2.7 5.6-2.7zM504.8 531.8c-1.4 1.9-4.3 2.7-6.5 2.7-4.3 0-8.3-3.6-8.3-8.1 0-5.9 4.3-8.9 8.3-8.9 2 0 4.2.7 5 2.2v-.7c0-.6.4-.9.9-.9s.9.3.9.9v3.5c0 .6-.4.9-.9.9s-.7-.4-.9-1c-.4-1.8-2.8-2.7-5-2.7-3 0-6.4 1.9-6.4 6.9 0 3.3 3.2 6 6.4 6 1.8 0 3.8-.5 4.9-2 .3-.4 1-.5 1.4-.2.5.3.5.9.2 1.4zM517.5 534.5c-5 0-8.6-3.8-8.6-8.5 0-4.6 3.6-8.6 8.2-8.6 4.5 0 7.4 3.8 7.5 8.4 0 .6-.3 1.2-1 1.2h-12.7c.5 3.2 3.3 5.4 6.5 5.4 1.2 0 2.9-.3 3.9-.8.8-.4 1.2-.1 1.4.3.2.4.1 1.1-.4 1.4-1.3.8-3.4 1.2-4.8 1.2zm-6.6-9.4h11.6c-.5-3.2-2.4-5.6-5.5-5.6-3.1-.1-5.6 2.5-6.1 5.6z"/></g><g fill="#4B4F54"><path d="M73.7 479H47.1v27h-6.6v-52h6.6v18.5h26.6V454h6.6v52h-6.6v-27zM129.8 454.1V487c0 10.9-8.9 19.8-19.8 19.8S90.2 498 90.2 487v-32.9h6.5V487c0 7.4 6 13.4 13.3 13.4 7.4 0 13.3-6.1 13.3-13.4v-32.9h6.5zM139.6 454.1h16.8c14.7 0 26.7 11.7 26.7 26s-12 26-26.7 26h-16.8v-52zm37 26c0-10.7-9-19.6-20.2-19.6h-10.3v39.3h10.3c11.2-.1 20.2-9 20.2-19.7zM203.3 506c-5.4-1.1-10.7-3.8-15.5-7.9l4.3-4.9c3.9 3.4 8.2 5.6 12.5 6.5 3.6.8 7.2.5 10.1-.8 1.9-.9 5.2-3.1 5.2-7.5 0-5.5-5.8-7.4-11.5-8.5-.5-.1-8.7-1.8-12-3.6-4.4-2.6-6.7-6.6-6.7-11.4 0-2.7.9-5.3 2.4-7.5 1.5-2 3.6-3.7 6.1-4.9 3.6-1.8 8-2.3 12.3-1.5 4.7.8 9.6 3.1 13.8 6.6l-4.2 5c-7.5-6.2-14.8-6.3-19.2-4.3-3 1.4-4.7 3.9-4.7 6.6 0 5 4.2 6.9 10.9 8.3 2.8.7 8.5 1.6 12 3.6 4.7 2.6 7.2 6.7 7.2 11.7 0 3-.8 5.8-2.5 8.2-1.5 2.2-3.9 3.9-6.5 5.2-2.8 1.4-5.6 1.8-8.8 1.8-1.7-.2-3.4-.4-5.2-.7zM287 479.7c0 15-12.3 27.1-27.2 27.1-15 0-27.1-12.1-27.1-27.1 0-15 12.2-27.2 27.1-27.2 14.9 0 27.2 12.2 27.2 27.2zm-6.6 0c0-11.4-9.2-20.8-20.6-20.8-11.4 0-20.6 9.4-20.6 20.8 0 11.3 9.2 20.7 20.6 20.7 11.4-.1 20.6-9.4 20.6-20.7zM301.9 465v41h-6.6v-52h7.2l27.7 41.1V454h6.6v52h-7.1l-27.8-41zM375.8 460.5h-13.7v-6.4h34v6.4h-13.7V506h-6.6v-45.5zM430.5 490.9h-21.2l-5.8 15.1h-7l20-52h6.8l20.1 52h-7.1l-5.8-15.1zm-10.6-27.4l-8.1 21h16.1l-8-21zM449.5 454.1h18.7c3.3 0 6.4 1.3 8.7 3.6 2.3 2.3 3.6 5.4 3.6 8.7 0 2.6-.7 5-2.2 7l-.1.1.1.1c2 .8 3.9 2 5.5 3.6 3.2 3.1 5 7.4 5 11.9s-1.8 8.7-5 11.9c-3.1 3.1-7.4 5-11.8 5h-22.5v-51.9zm18.7 18.2c3.2-.1 5.8-2.7 5.8-5.9s-2.6-5.8-5.8-6H456v11.9h12.2zm3.8 27.4c5.7-.1 10.3-5 10.3-10.6 0-5.7-4.6-10.4-10.3-10.4h-16v21h16zM496.6 454.1h6.6v45.6h28.5v6.3h-35v-51.9zM540.1 454.1h32.8v6.3h-26.3v12.2h22.9v6.5h-22.9v20.6h25.6v6.4H540v-52z"/></g><g fill="#4B4F54"><path d="M409.6 252.2H270.7c-.4 0-.7.8-.7 1.7 0 .9.3 2.9.7 2.9h2.1v9.6h55.7c.6 3 1.9 7.9 3.9 11 0 0 1 .2 1 5v148.3c0 8.1-.3 9.1-.3 9.1-7.9-.1-7.6 5.4-7.6 5.4h29.2s.3-5.5-7.6-5.4c0 0-.3-1-.3-9.1V282.3c0-4.8 1-5 1-5 2-3.1 3.3-8 3.9-11h55.7v-9.6h2.1c.4 0 .7-1.9.7-2.9.1-.8-.2-1.6-.6-1.6z"/><path d="M312.8 366h2.5v-8c0-4.2-3.4-7.6-7.5-7.6H235c-3.5-48.3-13.9-84-17.4-98.2h-14.3L208 274h4.7c7.7 34.4 18 97 6.7 171.2h11.9c4.3-28.4 5.3-55 4.4-79.1l66-.1c-.9 24.1.1 50.7 4.4 79.1h11.4c-4.2-28.3-5.4-55-4.7-79.1z"/></g></svg>