<?xml version="1.0" encoding="utf-8"?>
<!-- Generator: Adobe Illustrator 19.1.0, SVG Export Plug-In . SVG Version: 6.00 Build 0)  -->
<svg version="1.1" id="Layer_1" xmlns="http://www.w3.org/2000/svg" xmlns:xlink="http://www.w3.org/1999/xlink" x="0px" y="0px"
	 viewBox="0 0 612 792" enable-background="new 0 0 612 792" xml:space="preserve">
<g>
	<g>
		<rect x="189.5" y="360.6" fill="#414042" width="7" height="66.4"/>
		<rect x="203.3" y="377.7" fill="#414042" width="7" height="49.2"/>
		<rect x="203.3" y="360.6" fill="#414042" width="7" height="11.9"/>
		<polygon fill="#414042" points="238.6,417.3 222.3,377.9 222.2,377.7 214.8,377.7 234.9,426.7 235,426.9 242.1,426.9 262.7,377.7 
			254.8,377.7 		"/>
		<rect x="267.4" y="360.6" fill="#414042" width="7" height="11.9"/>
		<rect x="267.4" y="377.7" fill="#414042" width="7" height="49.2"/>
		<path fill="#414042" d="M302.7,376.6c-6.2,0-11.5,2.1-15.6,6.4c-4.1,4.2-6.2,9.6-6.2,15.9v28h7v-28.7c0-4,1.5-7.5,4.4-10.4
			c2.9-2.9,6.4-4.4,10.4-4.4c3.9,0,7.4,1.5,10.3,4.4c2.9,2.9,4.4,6.4,4.4,10.4v28.7h7v-28c0-6.4-2.1-11.7-6.2-15.9
			C314.1,378.7,308.9,376.6,302.7,376.6z"/>
		<path fill="#414042" d="M355.9,376.1c-0.2,0-0.5,0-0.7,0c-6.8,0.2-12.7,2.9-17.4,7.8c-4.7,5-7.1,11-7.1,17.8
			c0,7.1,2.6,13.4,7.7,18.5c5.1,5.1,11.2,7.6,18.3,7.4c7-0.3,12.9-3,17.6-8.1v3.9c0,4.4-1.7,8.3-5.2,11.5c-3.4,3.2-7.5,4.9-12.2,4.9
			c-3.9,0-7.5-1.2-10.8-3.6c-3.3-2.4-5.4-5.2-6.4-8.5l-0.1-0.2h-6.9l0.1,0.3c1.4,5,4.1,9.1,8.1,12.3c4.2,3.3,9.3,5.1,15.2,5.4
			c0.3,0,0.7,0,1,0c6.1,0,11.6-2,16.4-5.8c5.1-4.1,7.7-9.3,7.7-15.5v-22.4c0.1-7-2.5-13.2-7.6-18.3
			C368.7,378.6,362.7,376.1,355.9,376.1z M356.3,382.9c4.9,0,9.1,1.9,12.7,5.6c3.7,3.9,5.5,8.6,5.4,13.8c-0.1,5-1.9,9.4-5.4,13
			c-3.4,3.6-7.7,5.4-12.6,5.4c-5,0-9.4-1.8-13-5.4c-3.6-3.6-5.5-8-5.6-13.1c-0.1-5,1.6-9.5,5.1-13.3c3.4-3.8,7.6-5.8,12.6-6
			C355.7,382.9,356,382.9,356.3,382.9z"/>
		<path fill="#414042" d="M408.4,398.9l-5.6-1.9c-4.3-1.5-6.3-3.8-6-7.2c0.1-1.8,0.7-3.3,2-4.5c1.3-1.2,2.8-1.8,4.5-1.9
			c1.8,0,3.4,0.5,4.8,1.5c1.4,1,2.1,2.3,2.1,4v1.4h7.4v-1.7c-0.2-3.5-1.8-6.4-4.8-8.8c-2.9-2.3-6.1-3.4-9.5-3.3
			c-3.9,0.2-7.2,1.6-10,4.3c-2.8,2.7-4.1,6-3.9,9.9c0.3,6.4,3.5,10.5,9.6,12.5l5.7,1.8c4.7,1.5,7,4.2,6.9,8.3
			c-0.1,2.3-0.8,4.2-2.1,5.6c-1.5,1.5-3.7,2.3-6.3,2.4l-0.2,0c-1.9,0-3.7-0.8-5.4-2.5c-1.8-1.7-2.6-3.4-2.6-5v-1.9h-7.3v0.3
			c0,4.2,1.4,7.9,4.2,10.9c2.8,3.1,6.3,4.8,10.5,5c0.4,0,0.7,0,1.1,0c4,0,7.7-1.5,10.9-4.5c3.5-3.3,5-7.2,4.7-11.6
			C418.5,405.6,414.9,401.1,408.4,398.9z"/>
		<polygon fill="#414042" points="465.4,377.7 458.1,377.7 441.8,416 426.5,377.9 426.4,377.7 418.8,377.7 437.5,425.1 430.1,443.9 
			437.6,443.9 465.3,378.1 		"/>
		<path fill="#414042" d="M485.2,398.9l-5.6-1.9c-4.3-1.5-6.3-3.8-6-7.2c0.1-1.8,0.7-3.3,2-4.5c1.3-1.2,2.8-1.8,4.6-1.9
			c1.8,0,3.4,0.5,4.8,1.5c1.4,1,2.1,2.3,2.1,4v1.4h7.4v-1.7c-0.2-3.5-1.8-6.4-4.8-8.8c-2.9-2.3-6.1-3.4-9.5-3.3
			c-3.9,0.2-7.2,1.6-10,4.3c-2.8,2.7-4.1,6-3.9,9.9c0.3,6.4,3.5,10.5,9.6,12.5l5.7,1.8c4.7,1.5,7,4.2,6.9,8.3
			c-0.1,2.3-0.8,4.2-2.1,5.6c-1.5,1.5-3.7,2.3-6.3,2.4l-0.2,0c-1.9,0-3.7-0.8-5.4-2.5c-1.8-1.7-2.6-3.4-2.6-5v-1.9h-7.3v0.3
			c0,4.2,1.4,7.9,4.2,10.9c2.8,3.1,6.3,4.8,10.5,5c0.4,0,0.7,0,1.1,0c4.1,0,7.7-1.5,10.9-4.5c3.5-3.3,5-7.2,4.7-11.6
			C495.4,405.6,491.8,401.1,485.2,398.9z"/>
		<path fill="#414042" d="M508.6,411.4v-27.2h11.3v-6.6h-11.3v-17h-7v51.9c0,10.2,6.1,15.4,18,15.4h0.3V422h-0.3
			C512.2,422,508.6,418.5,508.6,411.4z"/>
		<path fill="#414042" d="M544.8,376.3c-0.5,0-1,0-1.5,0c-6.6,0-12.5,2.5-17.5,7.4c-5.4,5.3-8,11.7-7.8,19c0.1,6.9,2.8,13,7.9,18
			c5,4.9,10.9,7.4,17.4,7.4c0.2,0,0.3,0,0.5,0c5.3-0.1,10.2-1.7,14.6-4.7c4.4-3.1,7.5-7.3,9.3-12.6l0.1-0.4h-7.5l-0.1,0.2
			c-3.2,6.9-8.7,10.4-16.2,10.5l-0.3,0c-4.8,0-8.9-1.6-12.5-4.6c-3.5-3.1-5.5-7-6.1-11.6h43.7V401c0-6.1-2.3-11.7-7-16.6
			C557.1,379.5,551.4,376.7,544.8,376.3z M561.9,398.3h-36.6c0.9-4.4,3.1-8,6.5-10.7c3.4-2.7,7.3-4.1,11.8-4.1h0.3
			c4.6,0.1,8.6,1.5,11.9,4.2C558.9,390.4,561,394,561.9,398.3z"/>
		<path fill="#414042" d="M626.3,376.7c-7-0.6-12.7,2.4-16.9,8.8c-4.2-6.4-9.9-9.4-16.9-8.8c-5.3,0.5-9.7,2.5-13,6
			c-3.5,3.7-5.3,8.7-5.3,14.9v29.4h7.3v-30.1c0-3.7,1-6.9,3.1-9.5c2-2.6,4.8-3.9,8.2-3.9c3.5,0,6.6,1.2,9.1,3.4
			c2.5,2.3,3.8,5.1,3.8,8.5v31.6h7.4v-31.6c0-3.4,1.3-6.2,3.8-8.5c2.5-2.3,5.6-3.4,9.1-3.4c3.4,0,6.2,1.3,8.3,3.9
			c2.1,2.6,3.2,5.8,3.2,9.5v30.1h7.3v-29.4c0-6.1-1.8-11.1-5.4-14.9C636,379.2,631.6,377.1,626.3,376.7z"/>
		<path fill="#414042" d="M682.5,412.1c-0.5-6.5-4-11-10.6-13.2l-5.6-1.9c-4.3-1.5-6.3-3.8-6-7.2c0.1-1.8,0.7-3.3,2-4.5
			c1.3-1.2,2.8-1.8,4.5-1.9c1.8,0,3.4,0.5,4.8,1.5c1.4,1,2.1,2.3,2.1,4v1.4h7.4v-1.7c-0.2-3.5-1.8-6.4-4.8-8.8
			c-2.9-2.3-6.1-3.4-9.5-3.3c-3.9,0.2-7.2,1.6-10,4.3c-2.8,2.7-4.1,6-3.9,9.9c0.3,6.4,3.5,10.5,9.6,12.5l5.7,1.8
			c4.7,1.5,7,4.2,6.9,8.3c-0.1,2.3-0.8,4.2-2.1,5.6c-1.5,1.5-3.7,2.3-6.3,2.4l-0.2,0c-1.9,0-3.7-0.8-5.4-2.5c-1.8-1.7-2.6-3.4-2.6-5
			v-1.9h-7.3v0.3c0,4.2,1.4,7.9,4.2,10.9c2.8,3.1,6.3,4.8,10.5,5c0.4,0,0.7,0,1.1,0c4.1,0,7.7-1.5,10.9-4.5
			C681.3,420.5,682.8,416.5,682.5,412.1z"/>
	</g>
	<g>
		<path fill="none" stroke="#414042" stroke-width="3" stroke-miterlimit="10" d="M23.3,443.4c-15.3-19.4-10.9-49.6,9-71.3l-9-11.4
			c-27.4,28.1-33.9,68.3-13.7,94c20.2,25.7,60,27.8,92.6,6.3l-9-11.4C68.4,464.8,38.6,462.8,23.3,443.4z"/>
		<path fill="none" stroke="#414042" stroke-width="3" stroke-miterlimit="10" d="M147.3,343.8c-24.5-31.1-72.8-33.7-112.4-7.7
			L45.8,350c26.7-16.3,57.8-16.3,77.5,0l-36.1,29.8c-8.8-3.3-20.2-1.3-29.5,6.4c-12.8,10.6-16.4,27.7-8.1,38.2
			c8.3,10.6,25.4,10.6,38.2,0c9.2-7.6,13.7-18.6,12.3-28.1l36.1-29.8c11.4,23.2,4.8,54.3-16.5,77.5l10.9,13.8
			C163.9,423.7,171.8,374.9,147.3,343.8z"/>
	</g>
</g>
<text transform="matrix(1 0 0 1 682.5373 372.4517)" fill="#414042" font-family="'KozGoPr6N-Regular-83pv-RKSJ-H'" font-size="21px">Ⓡ</text>
</svg>
