<?xml version="1.0" standalone="no"?>
<!DOCTYPE svg PUBLIC "-//W3C//DTD SVG 20010904//EN"
 "http://www.w3.org/TR/2001/REC-SVG-20010904/DTD/svg10.dtd">
<svg version="1.0" xmlns="http://www.w3.org/2000/svg"
 width="198.000000pt" height="38.000000pt" viewBox="0 0 198.000000 38.000000"
 preserveAspectRatio="xMidYMid meet">
<metadata>
Created by potrace 1.13, written by Peter Selinger 2001-2015
</metadata>
<g transform="translate(0.000000,38.000000) scale(0.100000,-0.100000)"
fill="#000000" stroke="none">
<path d="M29 234 c-44 -71 -32 -172 25 -209 39 -26 100 -30 151 -11 48 19 53
27 31 45 -11 9 -20 9 -35 2 -37 -20 -100 -13 -126 14 -31 30 -34 95 -6 141 14
23 16 35 8 43 -17 17 -24 14 -48 -25z"/>
<path d="M902 253 c-21 -8 -43 -61 -36 -87 10 -43 38 -59 89 -54 45 6 46 5 32
-16 -20 -29 -60 -32 -85 -6 -11 12 -23 17 -26 12 -9 -15 42 -52 71 -52 13 0
35 12 50 26 23 23 25 31 21 86 -4 48 -9 65 -27 79 -22 18 -61 23 -89 12z"/>
<path d="M1461 243 c-11 -10 -24 -32 -27 -49 -13 -69 78 -116 129 -66 25 26
15 43 -11 19 -22 -20 -63 -22 -80 -5 -22 22 -13 27 51 30 60 3 62 4 59 28 -3
32 -37 60 -72 60 -15 0 -37 -8 -49 -17z"/>
</g>
</svg>
