<svg xmlns="http://www.w3.org/2000/svg" width="70.75" height="141.499" viewBox="0 0 70.75 141.499"><path d="M40.39 46.89l.727 4.952-1.354-4.828s-.56.16-.708-.833c-.148-.992 0-.044 0-.044l-3.438-16.583h-.773l-2.602 15.43s-.057.445-.376.56l-.103.547s.148.05.12.313-.12.833-.12.833.017.28-.25.296l-.338 2.11s-.105.64-.582.96l-.126.907s-.097.394-.28.553c0 0-.103-.075 0-.63l.16-.872s-.354-.33-.142-1.437l.314-1.803s-.195.045-.104-.525l.108-.6s-.04-.284.24-.262l.075-.57s-.264-.058-.207-.508l2.796-16.388s.034-.445.307-.514l-.01-2.123s-.104-.41.444-.388h.47l-.012-2.008s-.035-.744.57-.674c0 0 .628 0 .57.65v2.02h.663s.332-.01.264.526v2.008s.262.126.33.605l3.686 17.46c0 .004.204.71-.32.86zM40.39 114.81l.727 4.953-1.354-4.828s-.56.16-.708-.832c-.148-.993 0-.045 0-.045l-3.438-16.583h-.773l-2.602 15.43s-.057.445-.376.56l-.103.547s.148.05.12.313-.12.834-.12.834.017.278-.25.295l-.338 2.11s-.105.64-.582.96l-.126.906s-.097.397-.28.555c0 0-.103-.074 0-.63l.16-.87s-.354-.332-.142-1.44l.314-1.802s-.195.046-.104-.525l.108-.598s-.04-.285.24-.264l.075-.57s-.264-.057-.207-.508L33.43 96.39s.034-.445.307-.514l-.01-2.123s-.104-.41.444-.388h.47l-.012-2.008s-.035-.744.57-.674c0 0 .628 0 .57.65v2.02h.663s.332-.01.264.526v2.007s.262.126.33.605l3.686 17.46c0 .002.204.71-.32.858zM9.244 128.194h.525l2.263 5.002h-.603l-.582-1.312H8.144l-.59 1.312H6.98l2.264-5.002zm1.383 3.186L9.5 128.847l-1.136 2.533h2.263zM13.008 128.23h2.136c.61 0 1.1.184 1.412.496.24.24.383.59.383.98v.014c0 .823-.57 1.306-1.35 1.447l1.526 2.03h-.688l-1.44-1.93h-1.42v1.93h-.56v-4.968zm2.086 2.533c.745 0 1.277-.383 1.277-1.02v-.016c0-.61-.467-.98-1.27-.98h-1.53v2.017h1.524zM17.914 130.728v-.015c0-1.405 1.05-2.568 2.512-2.568.9 0 1.44.32 1.937.787l-.383.412c-.42-.397-.887-.682-1.56-.682-1.1 0-1.924.895-1.924 2.037v.013c0 1.15.83 2.05 1.923 2.05.68 0 1.127-.262 1.603-.716l.37.362c-.52.523-1.086.87-1.987.87-1.435 0-2.492-1.127-2.492-2.552zM23.367 128.23h.56v2.206h2.867v-2.207h.56v4.966h-.56v-2.235h-2.866v2.236h-.56v-4.967zM28.805 128.23h.56v4.966h-.56v-4.967zM32.132 128.747h-1.667v-.518h3.902v.517H32.7v4.45h-.567v-4.45zM35.414 128.23h3.59v.51h-3.03v1.696h2.71v.51h-2.71v1.74h3.066v.51h-3.626v-4.967zM39.944 130.728v-.015c0-1.405 1.05-2.568 2.512-2.568.9 0 1.44.32 1.938.787l-.384.412c-.418-.397-.887-.682-1.56-.682-1.1 0-1.924.895-1.924 2.037v.013c0 1.15.83 2.05 1.923 2.05.68 0 1.127-.262 1.603-.716l.37.362c-.52.523-1.087.87-1.988.87-1.433 0-2.49-1.127-2.49-2.552zM46.71 128.747h-1.667v-.518h3.902v.517h-1.667v4.45h-.568v-4.45zM49.913 131.117v-2.888h.56v2.852c0 1.07.57 1.675 1.52 1.675.915 0 1.497-.554 1.497-1.64v-2.888h.56v2.845c0 1.447-.83 2.2-2.07 2.2-1.23 0-2.067-.753-2.067-2.158zM55.373 128.23h2.136c.61 0 1.1.184 1.41.496.242.24.384.59.384.98v.014c0 .823-.567 1.306-1.348 1.447l1.525 2.03h-.687l-1.44-1.93h-1.42v1.93h-.56v-4.968zm2.086 2.533c.744 0 1.276-.383 1.276-1.02v-.016c0-.61-.468-.98-1.27-.98h-1.533v2.017h1.526zM60.5 128.23h3.59v.51h-3.03v1.696h2.712v.51h-2.71v1.74h3.064v.51H60.5v-4.967z"/></svg>