<svg xmlns="http://www.w3.org/2000/svg" width="70.75" height="141.499" viewBox="0 0 70.75 141.499"><path d="M46.266 37.688v-7.153c0-.928-.755-1.682-1.682-1.682h-7.459c-.47 0-1.177 0-1.64.462L24.558 40.243c-.263.263-.407.61-.407.982s.145.72.407.983l8.354 8.354c.263.262.612.407.983.407s.72-.146.983-.408l10.928-10.93c.47-.466.466-1.14.463-1.79v-.154zm-3.104-2.327c-.454.455-1.057.705-1.7.705-.642 0-1.244-.25-1.697-.704-.937-.937-.938-2.462 0-3.4.452-.453 1.056-.704 1.697-.704.644 0 1.247.25 1.7.705.938.936.938 2.462 0 3.4zM46.266 106.69v-7.153c0-.928-.755-1.682-1.682-1.682h-7.459c-.47 0-1.177 0-1.64.462l-10.927 10.927c-.263.263-.407.61-.407.982s.144.72.406.983l8.354 8.353c.262.263.61.407.982.407s.72-.145.983-.407l10.928-10.93c.47-.466.466-1.14.463-1.79v-.153zm-3.104-2.327c-.454.454-1.057.704-1.7.704-.642 0-1.244-.25-1.697-.704-.937-.938-.938-2.463 0-3.4.452-.454 1.056-.705 1.697-.705.644 0 1.247.25 1.7.705.938.936.938 2.46 0 3.4zM16.22 128.23h2.114c.567 0 1.015.162 1.298.44.206.212.32.474.32.793v.015c0 .646-.398.98-.79 1.15.59.176 1.065.517 1.065 1.198v.014c0 .852-.717 1.355-1.802 1.355H16.22v-4.966zm2.022 2.213c.674 0 1.143-.305 1.143-.887v-.015c0-.488-.39-.808-1.1-.808h-1.51v1.71h1.467zm.198 2.25c.752 0 1.22-.334 1.22-.888v-.015c0-.54-.454-.85-1.32-.85h-1.568v1.75h1.668zM21.34 128.23h2.135c.61 0 1.1.184 1.412.496.24.24.383.59.383.98v.014c0 .823-.568 1.306-1.348 1.447l1.525 2.03h-.688l-1.44-1.93H21.9v1.93h-.56v-4.968zm2.085 2.533c.745 0 1.277-.383 1.277-1.02v-.016c0-.61-.468-.98-1.27-.98H21.9v2.017h1.525zM28.303 128.194h.525l2.263 5.002h-.602l-.582-1.312h-2.703l-.59 1.312h-.573l2.263-5.002zm1.384 3.186l-1.128-2.533-1.136 2.533h2.263zM32.067 128.23h.525l3.13 3.98v-3.98h.546v4.966h-.448l-3.207-4.072v4.072h-.546v-4.967zM37.668 128.23h1.725c1.56 0 2.64 1.07 2.64 2.47v.013c0 1.397-1.08 2.483-2.64 2.483h-1.725v-4.967zm1.725 4.45c1.256 0 2.058-.853 2.058-1.952v-.015c0-1.1-.8-1.966-2.057-1.966H38.23v3.932h1.163zM43.263 128.23h.56v4.966h-.56v-4.967zM45.276 128.23h.525l3.13 3.98v-3.98h.547v4.966h-.447l-3.207-4.072v4.072h-.547v-4.967zM50.658 130.728v-.015c0-1.362 1-2.568 2.49-2.568.838 0 1.355.24 1.853.66l-.36.426c-.384-.333-.81-.567-1.513-.567-1.1 0-1.887.93-1.887 2.037v.014c0 1.185.76 2.064 1.965 2.064.568 0 1.093-.22 1.434-.496v-1.234h-1.513v-.504h2.05v1.98c-.46.41-1.155.758-1.992.758-1.562 0-2.527-1.136-2.527-2.554z"/></svg>