<svg xmlns="http://www.w3.org/2000/svg" width="70.75" height="141.499" viewBox="0 0 70.75 141.499"><path d="M38.573 31.59c0-.837-.68-1.444-1.516-1.444h-4.733c-.837 0-1.516.607-1.516 1.444l-.858 5.832c0 .836.68 1.55 1.516 1.55h.472l1.166 11.614c0 .508.413.86.923.86h1.327c.51 0 .923-.353.923-.86l1.168-11.615h.473c.836 0 1.515-.712 1.515-1.548l-.86-5.832zM34.69 24.05c1.404 0 2.543 1.138 2.543 2.54 0 1.405-1.14 2.54-2.542 2.54s-2.54-1.135-2.54-2.54c0-1.402 1.138-2.54 2.54-2.54zM38.573 99.967c0-.837-.68-1.444-1.516-1.444h-4.733c-.837 0-1.516.607-1.516 1.444l-.858 5.832c0 .835.68 1.548 1.516 1.548h.472l1.166 11.616c0 .508.413.858.923.858h1.327c.51 0 .923-.352.923-.858l1.168-11.616h.473c.836 0 1.515-.713 1.515-1.55l-.86-5.83zM34.69 92.427c1.404 0 2.543 1.138 2.543 2.54 0 1.405-1.14 2.54-2.542 2.54s-2.54-1.135-2.54-2.54c0-1.402 1.138-2.54 2.54-2.54z"/><g><path d="M12.04 130.728v-.015c0-1.405 1.05-2.568 2.512-2.568.9 0 1.44.32 1.937.787l-.384.412c-.42-.397-.887-.682-1.56-.682-1.1 0-1.924.895-1.924 2.037v.013c0 1.15.83 2.05 1.923 2.05.68 0 1.128-.262 1.604-.716l.368.362c-.518.523-1.085.87-1.986.87-1.435 0-2.492-1.127-2.492-2.552zM17.13 130.728v-.015c0-1.37 1.03-2.568 2.54-2.568s2.527 1.185 2.527 2.555v.014c0 1.37-1.03 2.568-2.54 2.568s-2.526-1.185-2.526-2.554zm4.485 0v-.015c0-1.128-.823-2.05-1.958-2.05s-1.944.907-1.944 2.036v.013c0 1.128.823 2.05 1.958 2.05s1.945-.908 1.945-2.035zM23.378 128.23h.525l3.13 3.98v-3.98h.545v4.966h-.447l-3.207-4.072v4.072h-.546v-4.967zM28.653 132.473l.347-.412c.518.47 1.015.704 1.703.704.667 0 1.107-.354 1.107-.845v-.015c0-.462-.25-.724-1.292-.944-1.143-.247-1.667-.616-1.667-1.432v-.015c0-.78.69-1.355 1.633-1.355.724 0 1.242.206 1.746.61l-.328.433c-.46-.375-.922-.538-1.433-.538-.647 0-1.058.355-1.058.802v.015c0 .467.255.73 1.348.964 1.107.24 1.618.646 1.618 1.405v.013c0 .852-.71 1.405-1.696 1.405-.787 0-1.433-.263-2.03-.795zM33.44 131.117v-2.888H34v2.852c0 1.07.567 1.675 1.518 1.675.916 0 1.498-.554 1.498-1.64v-2.888h.56v2.845c0 1.447-.83 2.2-2.07 2.2-1.23 0-2.067-.753-2.067-2.158zM38.898 128.23h.56v4.448h2.797v.518H38.9v-4.967zM43.892 128.747h-1.667v-.518h3.902v.517H44.46v4.45h-.568v-4.45zM47.224 128.23h.56v4.966h-.56v-4.967zM49.236 128.23h.525l3.13 3.98v-3.98h.547v4.966h-.447l-3.207-4.072v4.072h-.547v-4.967zM54.618 130.728v-.015c0-1.362 1-2.568 2.49-2.568.838 0 1.355.24 1.853.66l-.36.426c-.384-.333-.81-.567-1.512-.567-1.1 0-1.888.93-1.888 2.037v.014c0 1.185.76 2.064 1.965 2.064.568 0 1.093-.22 1.434-.496v-1.234h-1.512v-.504h2.05v1.98c-.46.41-1.156.758-1.993.758-1.562 0-2.527-1.136-2.527-2.554z"/></g></svg>