<svg xmlns="http://www.w3.org/2000/svg" width="70.75" height="141.499" viewBox="0 0 70.75 141.499"><path d="M36.815 31.53l-4.333-.017V24.08c0-1.198.97-2.17 2.166-2.17 1.2 0 2.167.972 2.167 2.17v7.45zM37.35 24.54h1.014v10.746H37.35zM34.733 50.324c.085-.42.218-1.02.374-1.696h-.77l.396 1.696zM36.425 43.107l-.018-11.08h-3.345V43.12l.004.013h3.35l.01-.026zM33.18 43.625c.192.84.606 2.63 1.043 4.517h1c.383-1.66.854-3.606 1.078-4.517h-3.12z"/><g><path d="M36.815 101.536l-4.333-.017v-7.434c0-1.198.97-2.17 2.166-2.17 1.2 0 2.167.972 2.167 2.17v7.45zM37.35 94.545h1.014v10.747H37.35z"/><g><path d="M34.733 120.33c.085-.42.218-1.02.374-1.696h-.77l.396 1.696zM36.425 113.113l-.018-11.08h-3.345v11.094l.004.012h3.35l.01-.027zM33.18 113.632c.192.84.606 2.63 1.043 4.516h1c.383-1.658.854-3.605 1.078-4.516h-3.12z"/></g></g><g><path d="M8.707 130.728v-.015c0-1.405 1.05-2.568 2.512-2.568.9 0 1.44.32 1.936.787l-.383.412c-.42-.397-.887-.682-1.56-.682-1.1 0-1.924.895-1.924 2.037v.013c0 1.15.83 2.05 1.922 2.05.68 0 1.128-.262 1.604-.716l.37.362c-.52.523-1.086.87-1.987.87-1.436 0-2.493-1.127-2.493-2.552zM13.798 130.728v-.015c0-1.37 1.03-2.568 2.54-2.568s2.526 1.185 2.526 2.555v.014c0 1.37-1.03 2.568-2.54 2.568s-2.526-1.185-2.526-2.554zm4.485 0v-.015c0-1.128-.823-2.05-1.958-2.05s-1.944.907-1.944 2.036v.013c0 1.128.824 2.05 1.96 2.05s1.943-.908 1.943-2.035zM20.045 128.23h.525l3.13 3.98v-3.98h.545v4.966h-.447l-3.207-4.072v4.072h-.545v-4.967zM26.96 128.747H25.29v-.518h3.902v.517h-1.667v4.45h-.567v-4.45zM30.242 128.23h2.135c.61 0 1.1.184 1.412.496.24.24.382.59.382.98v.014c0 .823-.568 1.306-1.348 1.447l1.525 2.03h-.69l-1.44-1.93h-1.418v1.93h-.56v-4.968zm2.086 2.533c.745 0 1.277-.383 1.277-1.02v-.016c0-.61-.468-.98-1.27-.98h-1.532v2.017h1.525zM37.206 128.194h.524l2.264 5.002h-.604l-.58-1.312h-2.705l-.588 1.312h-.575l2.264-5.002zm1.383 3.186l-1.13-2.533-1.134 2.533h2.263zM40.46 130.728v-.015c0-1.405 1.05-2.568 2.51-2.568.902 0 1.44.32 1.94.787l-.385.412c-.418-.397-.887-.682-1.56-.682-1.1 0-1.924.895-1.924 2.037v.013c0 1.15.83 2.05 1.924 2.05.68 0 1.128-.262 1.604-.716l.37.362c-.52.523-1.087.87-1.988.87-1.433 0-2.49-1.127-2.49-2.552zM47.224 128.747h-1.667v-.518h3.902v.517H47.79v4.45h-.568v-4.45zM50.556 128.23h.56v4.966h-.56v-4.967zM52.57 128.23h.524l3.13 3.98v-3.98h.546v4.966h-.447l-3.207-4.072v4.072h-.547v-4.967zM57.95 130.728v-.015c0-1.362 1.002-2.568 2.49-2.568.84 0 1.356.24 1.854.66l-.362.426c-.383-.333-.81-.567-1.512-.567-1.1 0-1.887.93-1.887 2.037v.014c0 1.185.76 2.064 1.965 2.064.568 0 1.093-.22 1.434-.496v-1.234H60.42v-.504h2.05v1.98c-.46.41-1.155.758-1.992.758-1.562 0-2.527-1.136-2.527-2.554z"/></g></svg>