<svg xmlns="http://www.w3.org/2000/svg" width="70.75" height="141.499" viewBox="0 0 70.75 141.499"><path d="M41.39 25.087l1.17 11.125c.06.573-.357 1.037-.933 1.037H29.123c-.576 0-.993-.465-.933-1.038l1.17-11.125c.062-.572.576-1.037 1.15-1.037h9.727c.575 0 1.09.465 1.152 1.037zM43.71 40.375c0 .575-.466 1.042-1.042 1.042H28.08c-.575 0-1.04-.467-1.04-1.042v-1.39c0-.575.465-1.04 1.04-1.04H42.67c.576 0 1.043.466 1.043 1.04v1.39zM43.873 51.02L42.3 42.113h-1.41l.982 5.557H28.878l.98-5.558h-1.41l-1.572 8.91c-.066.376.185.737.563.804.04.008.08.01.12.01.332 0 .625-.236.684-.572l.39-2.205h13.482l.39 2.204c.06.336.35.573.683.573.038 0 .08-.003.12-.01.378-.07.63-.43.563-.806z"/><g><path d="M41.39 93.27l1.17 11.124c.06.573-.357 1.037-.933 1.037H29.123c-.576 0-.993-.463-.933-1.036l1.17-11.125c.062-.573.576-1.038 1.15-1.038h9.727c.575 0 1.09.464 1.152 1.037zM43.71 108.556c0 .575-.466 1.042-1.042 1.042H28.08c-.575 0-1.04-.467-1.04-1.042v-1.39c0-.575.465-1.04 1.04-1.04H42.67c.576 0 1.043.466 1.043 1.04v1.39zM43.873 119.202l-1.572-8.91h-1.41l.982 5.56H28.878l.98-5.56h-1.41l-1.572 8.91c-.066.377.185.738.563.805.04.008.08.01.12.01.332 0 .625-.236.684-.572l.39-2.205h13.482l.39 2.205c.06.336.35.573.683.573.038 0 .08-.003.12-.01.378-.068.63-.43.563-.806z"/></g><g><path d="M22.3 128.23h1.724c1.56 0 2.64 1.07 2.64 2.47v.013c0 1.397-1.08 2.483-2.64 2.483H22.3v-4.967zm1.724 4.45c1.256 0 2.058-.853 2.058-1.952v-.015c0-1.1-.802-1.966-2.058-1.966H22.86v3.932h1.164zM27.845 128.23h3.59v.51h-3.03v1.696h2.71v.51h-2.71v1.74h3.066v.51h-3.624v-4.967zM32.27 132.473l.347-.412c.518.47 1.015.704 1.703.704.667 0 1.107-.354 1.107-.845v-.015c0-.462-.25-.724-1.292-.944-1.143-.247-1.667-.616-1.667-1.432v-.015c0-.78.688-1.355 1.632-1.355.724 0 1.242.206 1.746.61l-.327.433c-.462-.375-.923-.538-1.434-.538-.646 0-1.057.355-1.057.802v.015c0 .467.254.73 1.347.964 1.107.24 1.618.646 1.618 1.405v.013c0 .852-.71 1.405-1.696 1.405-.79 0-1.435-.263-2.03-.795zM37.183 128.23h.56v4.966h-.56v-4.967zM38.977 130.728v-.015c0-1.362 1-2.568 2.49-2.568.838 0 1.355.24 1.853.66l-.362.426c-.383-.333-.81-.567-1.512-.567-1.1 0-1.887.93-1.887 2.037v.014c0 1.185.758 2.064 1.964 2.064.568 0 1.093-.22 1.434-.496v-1.234h-1.512v-.504h2.05v1.98c-.46.41-1.155.758-1.992.758-1.563 0-2.527-1.136-2.527-2.554zM44.755 128.23h.525l3.13 3.98v-3.98h.546v4.966h-.447l-3.208-4.072v4.072h-.547v-4.967z"/></g></svg>