<svg xmlns="http://www.w3.org/2000/svg" width="70.75" height="141.5" viewBox="0 0 70.75 141.5"><path d="M43.676 24.412L39.59 28.5l1.322 1.322-.4.402-1.324-1.323-1.266 1.267 1.324 1.324-.403.404-1.323-1.324-1.266 1.266 1.324 1.323-.403.402-1.324-1.323-1.264 1.264 1.323 1.324-.404.402-1.324-1.323-1.266 1.265 1.323 1.324-.403.402-1.324-1.323-1.266 1.265 1.323 1.323-.403.403-1.323-1.323-1.266 1.264 1.324 1.325-.402.403-1.325-1.324-1.265 1.266 1.323 1.324-.403.402-1.324-1.323-1.265 1.264 1.324 1.324-.402.402-1.325-1.323-1.267 1.266 1.325 1.324-.402.403-1.324-1.324-1.357 1.357 4.258 4.258L47.935 28.67l-4.258-4.256zm-.667 4.926c-.445-.445-.445-1.167 0-1.61.444-.446 1.166-.446 1.61 0s.444 1.166 0 1.61c-.444.445-1.167.445-1.61 0zM43.676 94.865l-4.085 4.088 1.322 1.322-.4.402-1.324-1.323-1.266 1.267 1.324 1.324-.403.403-1.323-1.324-1.266 1.266 1.324 1.322-.403.403-1.324-1.323-1.264 1.265 1.323 1.324-.404.403-1.324-1.323-1.266 1.265 1.323 1.324-.403.4-1.324-1.322-1.266 1.265 1.323 1.324-.403.402-1.323-1.324-1.266 1.265 1.324 1.325-.402.402-1.325-1.324-1.265 1.266 1.323 1.323-.403.4-1.324-1.322-1.265 1.267 1.324 1.324-.402.402-1.325-1.323-1.267 1.267 1.325 1.324-.402.402-1.324-1.323-1.357 1.355 4.258 4.258L47.935 99.12l-4.258-4.255zm-.667 4.927c-.445-.445-.445-1.168 0-1.61.444-.446 1.166-.446 1.61 0s.444 1.166 0 1.61c-.444.444-1.167.444-1.61 0z"/><text transform="translate(8.717 133.196)" font-family="'Gotham-Book'" font-size="7.091">ENGINEERING</text></svg>