<svg xmlns="http://www.w3.org/2000/svg" width="70.75" height="141.5" viewBox="0 0 70.75 141.5"><path d="M43.676 24.412L39.59 28.5l1.322 1.322-.4.402-1.324-1.323-1.266 1.267 1.324 1.324-.403.404-1.323-1.324-1.266 1.266 1.324 1.323-.403.402-1.324-1.323-1.264 1.264 1.323 1.324-.404.402-1.324-1.323-1.266 1.265 1.323 1.324-.403.402-1.324-1.323-1.266 1.265 1.323 1.323-.403.403-1.323-1.323-1.266 1.264 1.324 1.325-.402.403-1.325-1.324-1.265 1.266 1.323 1.324-.403.402-1.324-1.323-1.265 1.264 1.324 1.324-.402.402-1.325-1.323-1.267 1.266 1.325 1.324-.402.403-1.324-1.324-1.357 1.357 4.258 4.258L47.935 28.67l-4.258-4.256zm-.667 4.926c-.445-.445-.445-1.167 0-1.61.444-.446 1.166-.446 1.61 0s.444 1.166 0 1.61c-.444.445-1.167.445-1.61 0zM43.676 94.865l-4.085 4.088 1.322 1.322-.4.4-1.324-1.322-1.266 1.268 1.324 1.323-.403.404-1.323-1.324-1.266 1.266 1.324 1.32-.403.405-1.324-1.324-1.264 1.267 1.323 1.324-.404.403-1.324-1.324-1.266 1.265 1.323 1.324-.403.4-1.324-1.323-1.266 1.266 1.323 1.324-.403.402-1.323-1.325-1.266 1.266 1.324 1.325-.402.402-1.325-1.324-1.265 1.266 1.323 1.323-.403.4-1.324-1.322-1.265 1.267 1.324 1.324-.402.4-1.325-1.32-1.267 1.267 1.325 1.324-.402.4-1.324-1.32-1.357 1.354 4.258 4.258 20.864-20.86-4.258-4.257zm-.667 4.927c-.445-.444-.445-1.168 0-1.61.444-.445 1.166-.445 1.61 0 .444.444.444 1.166 0 1.61s-1.167.444-1.61 0zM10.363 128.23h3.59v.51h-3.03v1.696h2.71v.51h-2.71v1.74h3.066v.51h-3.626v-4.967zM15.114 128.23h.525l3.128 3.98v-3.98h.546v4.966h-.447l-3.207-4.072v4.072h-.546v-4.967zM20.496 130.727v-.015c0-1.362 1-2.568 2.49-2.568.838 0 1.356.24 1.853.66l-.363.426c-.383-.334-.81-.568-1.51-.568-1.1 0-1.888.93-1.888 2.036v.015c0 1.185.758 2.064 1.964 2.064.567 0 1.093-.22 1.433-.496v-1.233h-1.51v-.504h2.05v1.98c-.46.41-1.157.758-1.994.758-1.563 0-2.527-1.134-2.527-2.553zM26.324 128.23h.56v4.966h-.56v-4.967zM28.338 128.23h.525l3.13 3.98v-3.98h.545v4.966h-.447l-3.206-4.072v4.072h-.546v-4.967zM33.94 128.23h3.59v.51H34.5v1.696h2.71v.51H34.5v1.74h3.064v.51H33.94v-4.967zM38.69 128.23h3.59v.51h-3.03v1.696h2.71v.51h-2.71v1.74h3.066v.51H38.69v-4.967zM43.44 128.23h2.136c.61 0 1.1.184 1.412.496.24.24.383.59.383.98v.014c0 .823-.566 1.306-1.347 1.447l1.525 2.03h-.688l-1.44-1.93H44v1.93h-.56v-4.968zm2.087 2.532c.744 0 1.276-.383 1.276-1.02v-.016c0-.61-.468-.98-1.27-.98H44v2.017h1.527zM48.617 128.23h.56v4.966h-.56v-4.967zM50.63 128.23h.526l3.13 3.98v-3.98h.545v4.966h-.445l-3.207-4.072v4.072h-.547v-4.967zM56.012 130.727v-.015c0-1.362 1-2.568 2.49-2.568.838 0 1.355.24 1.853.66l-.362.426c-.383-.334-.81-.568-1.51-.568-1.1 0-1.89.93-1.89 2.036v.015c0 1.185.76 2.064 1.967 2.064.567 0 1.093-.22 1.433-.496v-1.233h-1.51v-.504h2.05v1.98c-.462.41-1.157.758-1.994.758-1.563 0-2.528-1.134-2.528-2.553z"/></svg>