<svg xmlns="http://www.w3.org/2000/svg" width="70.75" height="141.5" viewBox="0 0 70.75 141.5"><path d="M20.99 27.61h5.493v24.167H20.99zM28.896 36.154h5.493v15.624h-5.494zM43.76 45.228h5.49v6.55h-5.49zM36.902 23.705h5.492v28.073h-5.492z"/><g><path d="M20.99 95.946h5.493v24.17H20.99zM28.896 104.49h5.493v15.625h-5.494zM43.76 113.563h5.49v6.55h-5.49zM36.902 92.04h5.492v28.075h-5.492z"/></g><g><path d="M14.054 128.23h.567l1.81 2.71 1.81-2.71h.568v4.966h-.56v-4.022l-1.81 2.66h-.03l-1.81-2.652v4.016h-.545v-4.97zM22.046 128.194h.525l2.264 5.002h-.603l-.58-1.312h-2.704l-.59 1.312h-.574l2.264-5.002zm1.384 3.186l-1.128-2.533-1.135 2.533h2.263zM25.81 128.23h2.135c.61 0 1.1.184 1.412.496.24.24.383.59.383.98v.015c0 .823-.568 1.307-1.348 1.448l1.525 2.03h-.687l-1.44-1.932h-1.42v1.93h-.56v-4.967zm2.086 2.533c.745 0 1.277-.383 1.277-1.02v-.016c0-.61-.468-.98-1.27-.98H26.37v2.018l1.526-.002zM30.937 128.23h.56v2.965l2.853-2.966h.724l-2.128 2.17 2.22 2.797h-.7l-1.91-2.406-1.057 1.072v1.335h-.562v-4.968zM36.034 128.23h3.59v.51h-3.028v1.696h2.71v.51h-2.71v1.74h3.064v.51h-3.626v-4.967zM42.098 128.748h-1.666v-.52h3.9v.52h-1.666v4.448h-.568v-4.448zM45.43 128.23h.562v4.966h-.562v-4.967zM47.44 128.23h.526l3.13 3.978v-3.98h.546v4.968h-.447l-3.206-4.07v4.07h-.55v-4.967zM52.824 130.728v-.016c0-1.36 1-2.567 2.49-2.567.838 0 1.354.24 1.853.66l-.362.426c-.383-.333-.81-.566-1.512-.566-1.1 0-1.887.93-1.887 2.037v.015c0 1.185.76 2.063 1.965 2.063.57 0 1.094-.22 1.435-.495v-1.234h-1.512v-.505h2.05v1.98c-.46.41-1.155.76-1.99.76-1.564-.004-2.53-1.14-2.53-2.557z"/></g></svg>