<svg xmlns="http://www.w3.org/2000/svg" width="70.75" height="141.5" viewBox="0 0 70.75 141.5"><path fill="#1A1A1A" d="M35.45 24.05c-7.653 0-13.86 6.206-13.86 13.86 0 7.655 6.207 13.86 13.86 13.86 7.657 0 13.86-6.205 13.86-13.86.002-7.654-6.203-13.86-13.86-13.86zm.628 21.655v1.446c0 .32-.26.578-.58.578s-.576-.26-.576-.577v-1.445c-2.385-.21-3.96-1.686-3.96-3.834 0-.316.26-.576.578-.576.318 0 .577.26.577.577 0 2.006 1.747 2.724 3.382 2.724s3.382-.716 3.382-2.723c0-1.575-.672-1.978-3.01-3.13l-1.252-.62c-2.28-1.125-3.657-1.804-3.657-4.17 0-2.162 1.575-3.65 3.96-3.862V28.67c0-.32.26-.577.578-.577.32 0 .58.26.58.577v1.42c2.354.213 3.906 1.702 3.906 3.86 0 .32-.26.578-.576.578-.32 0-.578-.258-.578-.577 0-2.026-1.723-2.748-3.33-2.748-1.636 0-3.382.72-3.382 2.75 0 1.577.674 1.98 3.012 3.133l1.253.62c2.28 1.125 3.654 1.802 3.654 4.167-.003 2.146-1.578 3.624-3.962 3.833zM35.45 92.264c-7.653 0-13.86 6.206-13.86 13.86 0 7.653 6.207 13.86 13.86 13.86 7.657 0 13.86-6.207 13.86-13.86 0-7.654-6.203-13.86-13.86-13.86zm.628 21.655v1.444c0 .32-.26.577-.58.577s-.576-.26-.576-.576v-1.445c-2.385-.212-3.96-1.688-3.96-3.835 0-.317.26-.577.578-.577.318 0 .577.26.577.577 0 2.005 1.747 2.724 3.382 2.724s3.382-.72 3.382-2.725c0-1.576-.672-1.98-3.01-3.132l-1.252-.62c-2.28-1.125-3.657-1.806-3.657-4.17 0-2.162 1.575-3.65 3.96-3.86v-1.42c0-.318.26-.576.578-.576.32 0 .58.26.58.577v1.42c2.354.214 3.906 1.7 3.906 3.86 0 .318-.26.577-.576.577-.32 0-.578-.258-.578-.575 0-2.026-1.723-2.75-3.33-2.75-1.636 0-3.382.722-3.382 2.75 0 1.578.674 1.98 3.012 3.133l1.253.62c2.28 1.125 3.654 1.803 3.654 4.167-.003 2.147-1.578 3.625-3.962 3.834z"/><path d="M24.146 132.473l.348-.412c.518.47 1.015.704 1.703.704.667 0 1.107-.354 1.107-.846v-.014c0-.463-.25-.725-1.292-.944-1.143-.248-1.667-.617-1.667-1.433v-.016c0-.778.688-1.353 1.632-1.353.724 0 1.242.206 1.746.61l-.327.433c-.46-.376-.922-.54-1.433-.54-.646 0-1.057.355-1.057.803v.016c0 .466.255.728 1.348.964 1.107.24 1.618.646 1.618 1.404v.014c0 .853-.71 1.406-1.696 1.406-.788 0-1.433-.264-2.03-.795zM30.742 128.193h.525l2.263 5.002h-.603l-.582-1.312h-2.703l-.59 1.312h-.574l2.264-5.002zm1.384 3.186l-1.128-2.534-1.135 2.533h2.263zM34.506 128.23h.56v4.448h2.795v.52h-3.354v-4.97zM38.895 128.23h3.592v.51h-3.03v1.696h2.71v.512h-2.71v1.738h3.065v.51h-3.627v-4.967zM43.318 132.473l.35-.412c.518.47 1.014.704 1.702.704.667 0 1.106-.354 1.106-.846v-.014c0-.463-.248-.725-1.29-.944-1.145-.248-1.67-.617-1.67-1.433v-.016c0-.778.69-1.353 1.634-1.353.724 0 1.24.206 1.744.61l-.326.433c-.46-.376-.922-.54-1.434-.54-.646 0-1.058.355-1.058.803v.016c0 .466.256.728 1.35.964 1.105.24 1.617.646 1.617 1.404v.014c0 .853-.71 1.406-1.696 1.406-.785 0-1.432-.264-2.03-.795z"/></svg>