<svg xmlns="http://www.w3.org/2000/svg" preserveAspectRatio="xMidYMid" width="18" height="18" viewBox="0 0 18 18"><defs><style>.cls-2 { fill: #ffffff; opacity: 0.55; }</style></defs><path d="M17.977 14.478c-.002 1.945-1.587 3.52-3.54 3.52H3.55c-1.954 0-3.54-1.574-3.54-3.52-.003-2.598 0-5.197 0-7.795v-.246h5.217c-.83 1.257-1.058 2.59-.626 4.008.31 1.014.924 1.822 1.805 2.42 1.735 1.18 4.09 1.013 5.63-.365 1.552-1.386 2.163-3.893.705-6.064h5.237v.246c0 2.598.002 5.197 0 7.796zM8.99 5.55c1.958.002 3.545 1.593 3.536 3.542-.01 1.964-1.58 3.518-3.555 3.517-1.957 0-3.552-1.593-3.542-3.538.01-1.947 1.605-3.525 3.563-3.522zm-.016 6.138c1.43.008 2.625-1.16 2.628-2.57.002-1.47-1.145-2.632-2.6-2.635-1.43-.004-2.614 1.15-2.617 2.553-.004 1.467 1.144 2.643 2.59 2.652zM12.45 5.87c-.113 0-.253-.06-.337-.138-1.79-1.645-4.53-1.632-6.296.033-.06.058-.16.107-.242.107-1.81.006-3.622.004-5.433.004-.036 0-.072-.007-.112-.01-.007-.033-.02-.06-.02-.088C.018 4.89 0 4.002.04 3.116.08 2.21.72 1.178 1.51.66v3.785h.716v-.25-3.58c0-.402.073-.473.524-.493v4.315h.727V.02h.493v4.418h.734V.002h9.741c1.902 0 3.482 1.526 3.526 3.422.02.806.003 1.614.003 2.44-.085.004-.155.012-.225.012-1.767 0-3.534.003-5.3-.006zm3.89-3.8c-.006-.33-.21-.57-.533-.576-.657-.014-1.314-.014-1.97 0-.328.008-.53.245-.533.573-.002.64-.003 1.28 0 1.92.002.348.228.578.572.58.628.004 1.256.004 1.884 0 .346-.002.575-.232.58-.576.003-.32 0-.64 0-.96 0-.32.003-.64 0-.96z" id="path-1" class="cls-2" fill-rule="evenodd"/></svg>