<svg xmlns="http://www.w3.org/2000/svg" preserveAspectRatio="xMidYMid" width="19" height="16" viewBox="0 0 19 16"><defs><style>.cls-2 { fill: #ffffff; opacity: 0.5; }</style></defs><path d="M19.007 1.89c-.7.32-1.45.537-2.24.635.805-.5 1.424-1.29 1.715-2.234-.753.464-1.588.8-2.477.98-.71-.785-1.725-1.275-2.847-1.275-2.154 0-3.9 1.81-3.9 4.04 0 .316.034.625.1.92C6.12 4.788 3.244 3.18 1.32.736c-.335.597-.527 1.29-.527 2.03 0 1.402.69 2.638 1.736 3.363-.64-.02-1.24-.203-1.766-.506v.05c0 1.958 1.344 3.592 3.128 3.963-.327.093-.672.142-1.028.142-.25 0-.495-.026-.734-.072.497 1.604 1.938 2.773 3.644 2.805-1.335 1.083-3.016 1.73-4.844 1.73-.315 0-.625-.02-.93-.057 1.726 1.145 3.776 1.815 5.98 1.815 7.173 0 11.096-6.156 11.096-11.494 0-.176-.003-.35-.01-.523.76-.57 1.422-1.28 1.945-2.09z" id="path-1" class="cls-2" fill-rule="evenodd"/></svg>