<?xml version="1.0" encoding="utf-8"?>
<!-- Generator: Adobe Illustrator 19.1.0, SVG Export Plug-In . SVG Version: 6.00 Build 0)  -->
<svg version="1.1" id="Layer_1" xmlns="http://www.w3.org/2000/svg" xmlns:xlink="http://www.w3.org/1999/xlink" x="0px" y="0px"
	 viewBox="0 0 707.7 178.7" enable-background="new 0 0 707.7 178.7" xml:space="preserve">
<g>
	<g>
		<rect x="193.6" y="52.9" fill="#FFFFFF" stroke="#FFFFFF" stroke-miterlimit="10" width="7" height="66.4"/>
		<rect x="207.4" y="70" fill="#FFFFFF" stroke="#FFFFFF" stroke-miterlimit="10" width="7" height="49.2"/>
		<rect x="207.4" y="52.9" fill="#FFFFFF" stroke="#FFFFFF" stroke-miterlimit="10" width="7" height="11.9"/>
		<polygon fill="#FFFFFF" stroke="#FFFFFF" stroke-miterlimit="10" points="242.7,109.6 226.4,70.2 226.3,70 218.9,70 239,119 
			239.1,119.2 246.2,119.2 266.8,70 258.9,70 		"/>
		<rect x="271.5" y="52.9" fill="#FFFFFF" stroke="#FFFFFF" stroke-miterlimit="10" width="7" height="11.9"/>
		<rect x="271.5" y="70" fill="#FFFFFF" stroke="#FFFFFF" stroke-miterlimit="10" width="7" height="49.2"/>
		<path fill="#FFFFFF" stroke="#FFFFFF" stroke-miterlimit="10" d="M306.8,68.9c-6.2,0-11.5,2.1-15.6,6.4c-4.1,4.2-6.2,9.6-6.2,15.9
			v28h7V90.5c0-4,1.5-7.5,4.4-10.4s6.4-4.4,10.4-4.4c3.9,0,7.4,1.5,10.3,4.4s4.4,6.4,4.4,10.4v28.7h7v-28c0-6.4-2.1-11.7-6.2-15.9
			C318.2,71,313,68.9,306.8,68.9z"/>
		<path fill="#FFFFFF" stroke="#FFFFFF" stroke-miterlimit="10" d="M360,68.4c-0.2,0-0.5,0-0.7,0c-6.8,0.2-12.7,2.9-17.4,7.8
			c-4.7,5-7.1,11-7.1,17.8c0,7.1,2.6,13.4,7.7,18.5s11.2,7.6,18.3,7.4c7-0.3,12.9-3,17.6-8.1v3.9c0,4.4-1.7,8.3-5.2,11.5
			c-3.4,3.2-7.5,4.9-12.2,4.9c-3.9,0-7.5-1.2-10.8-3.6c-3.3-2.4-5.4-5.2-6.4-8.5l-0.1-0.2h-6.9l0.1,0.3c1.4,5,4.1,9.1,8.1,12.3
			c4.2,3.3,9.3,5.1,15.2,5.4c0.3,0,0.7,0,1,0c6.1,0,11.6-2,16.4-5.8c5.1-4.1,7.7-9.3,7.7-15.5V94.1c0.1-7-2.5-13.2-7.6-18.3
			C372.8,70.9,366.8,68.4,360,68.4z M360.4,75.2c4.9,0,9.1,1.9,12.7,5.6c3.7,3.9,5.5,8.6,5.4,13.8c-0.1,5-1.9,9.4-5.4,13
			c-3.4,3.6-7.7,5.4-12.6,5.4c-5,0-9.4-1.8-13-5.4s-5.5-8-5.6-13.1c-0.1-5,1.6-9.5,5.1-13.3c3.4-3.8,7.6-5.8,12.6-6
			C359.8,75.2,360.1,75.2,360.4,75.2z"/>
		<path fill="#FFFFFF" stroke="#FFFFFF" stroke-miterlimit="10" d="M412.5,91.2l-5.6-1.9c-4.3-1.5-6.3-3.8-6-7.2
			c0.1-1.8,0.7-3.3,2-4.5s2.8-1.8,4.5-1.9c1.8,0,3.4,0.5,4.8,1.5s2.1,2.3,2.1,4v1.4h7.4v-1.7c-0.2-3.5-1.8-6.4-4.8-8.8
			c-2.9-2.3-6.1-3.4-9.5-3.3c-3.9,0.2-7.2,1.6-10,4.3c-2.8,2.7-4.1,6-3.9,9.9c0.3,6.4,3.5,10.5,9.6,12.5l5.7,1.8
			c4.7,1.5,7,4.2,6.9,8.3c-0.1,2.3-0.8,4.2-2.1,5.6c-1.5,1.5-3.7,2.3-6.3,2.4h-0.2c-1.9,0-3.7-0.8-5.4-2.5c-1.8-1.7-2.6-3.4-2.6-5
			v-1.9h-7.3v0.3c0,4.2,1.4,7.9,4.2,10.9c2.8,3.1,6.3,4.8,10.5,5c0.4,0,0.7,0,1.1,0c4,0,7.7-1.5,10.9-4.5c3.5-3.3,5-7.2,4.7-11.6
			C422.6,97.9,419,93.4,412.5,91.2z"/>
		<polygon fill="#FFFFFF" stroke="#FFFFFF" stroke-miterlimit="10" points="469.5,70 462.2,70 445.9,108.3 430.6,70.2 430.5,70 
			422.9,70 441.6,117.4 434.2,136.2 441.7,136.2 469.4,70.4 		"/>
		<path fill="#FFFFFF" stroke="#FFFFFF" stroke-miterlimit="10" d="M489.3,91.2l-5.6-1.9c-4.3-1.5-6.3-3.8-6-7.2
			c0.1-1.8,0.7-3.3,2-4.5s2.8-1.8,4.6-1.9c1.8,0,3.4,0.5,4.8,1.5s2.1,2.3,2.1,4v1.4h7.4v-1.7c-0.2-3.5-1.8-6.4-4.8-8.8
			c-2.9-2.3-6.1-3.4-9.5-3.3c-3.9,0.2-7.2,1.6-10,4.3c-2.8,2.7-4.1,6-3.9,9.9c0.3,6.4,3.5,10.5,9.6,12.5l5.7,1.8
			c4.7,1.5,7,4.2,6.9,8.3c-0.1,2.3-0.8,4.2-2.1,5.6c-1.5,1.5-3.7,2.3-6.3,2.4H484c-1.9,0-3.7-0.8-5.4-2.5c-1.8-1.7-2.6-3.4-2.6-5
			v-1.9h-7.3v0.3c0,4.2,1.4,7.9,4.2,10.9c2.8,3.1,6.3,4.8,10.5,5c0.4,0,0.7,0,1.1,0c4.1,0,7.7-1.5,10.9-4.5c3.5-3.3,5-7.2,4.7-11.6
			C499.5,97.9,495.9,93.4,489.3,91.2z"/>
		<path fill="#FFFFFF" stroke="#FFFFFF" stroke-miterlimit="10" d="M512.7,103.7V76.5H524v-6.6h-11.3v-17h-7v51.9
			c0,10.2,6.1,15.4,18,15.4h0.3v-5.9h-0.3C516.3,114.3,512.7,110.8,512.7,103.7z"/>
		<path fill="#FFFFFF" stroke="#FFFFFF" stroke-miterlimit="10" d="M548.9,68.6c-0.5,0-1,0-1.5,0c-6.6,0-12.5,2.5-17.5,7.4
			c-5.4,5.3-8,11.7-7.8,19c0.1,6.9,2.8,13,7.9,18c5,4.9,10.9,7.4,17.4,7.4c0.2,0,0.3,0,0.5,0c5.3-0.1,10.2-1.7,14.6-4.7
			c4.4-3.1,7.5-7.3,9.3-12.6l0.1-0.4h-7.5l-0.1,0.2c-3.2,6.9-8.7,10.4-16.2,10.5h-0.3c-4.8,0-8.9-1.6-12.5-4.6
			c-3.5-3.1-5.5-7-6.1-11.6h43.7v-3.9c0-6.1-2.3-11.7-7-16.6C561.2,71.8,555.5,69,548.9,68.6z M566,90.6h-36.6
			c0.9-4.4,3.1-8,6.5-10.7s7.3-4.1,11.8-4.1h0.3c4.6,0.1,8.6,1.5,11.9,4.2C563,82.7,565.1,86.3,566,90.6z"/>
		<path fill="#FFFFFF" stroke="#FFFFFF" stroke-miterlimit="10" d="M630.4,69c-7-0.6-12.7,2.4-16.9,8.8c-4.2-6.4-9.9-9.4-16.9-8.8
			c-5.3,0.5-9.7,2.5-13,6c-3.5,3.7-5.3,8.7-5.3,14.9v29.4h7.3V89.2c0-3.7,1-6.9,3.1-9.5c2-2.6,4.8-3.9,8.2-3.9
			c3.5,0,6.6,1.2,9.1,3.4c2.5,2.3,3.8,5.1,3.8,8.5v31.6h7.4V87.7c0-3.4,1.3-6.2,3.8-8.5s5.6-3.4,9.1-3.4c3.4,0,6.2,1.3,8.3,3.9
			s3.2,5.8,3.2,9.5v30.1h7.3V89.9c0-6.1-1.8-11.1-5.4-14.9C640.1,71.5,635.7,69.4,630.4,69z"/>
		<path fill="#FFFFFF" stroke="#FFFFFF" stroke-miterlimit="10" d="M686.6,104.4c-0.5-6.5-4-11-10.6-13.2l-5.6-1.9
			c-4.3-1.5-6.3-3.8-6-7.2c0.1-1.8,0.7-3.3,2-4.5s2.8-1.8,4.5-1.9c1.8,0,3.4,0.5,4.8,1.5c1.4,1,2.1,2.3,2.1,4v1.4h7.4v-1.7
			c-0.2-3.5-1.8-6.4-4.8-8.8c-2.9-2.3-6.1-3.4-9.5-3.3c-3.9,0.2-7.2,1.6-10,4.3c-2.8,2.7-4.1,6-3.9,9.9c0.3,6.4,3.5,10.5,9.6,12.5
			l5.7,1.8c4.7,1.5,7,4.2,6.9,8.3c-0.1,2.3-0.8,4.2-2.1,5.6c-1.5,1.5-3.7,2.3-6.3,2.4h-0.2c-1.9,0-3.7-0.8-5.4-2.5
			c-1.8-1.7-2.6-3.4-2.6-5v-1.9h-7.3v0.3c0,4.2,1.4,7.9,4.2,10.9c2.8,3.1,6.3,4.8,10.5,5c0.4,0,0.7,0,1.1,0c4.1,0,7.7-1.5,10.9-4.5
			C685.4,112.8,686.9,108.8,686.6,104.4z"/>
	</g>
	<g>
		<path fill="none" stroke="#FFFFFF" stroke-miterlimit="10" d="M27.4,135.7c-15.3-19.4-10.9-49.6,9-71.3l-9-11.4
			C0,81.1-6.5,121.3,13.7,147s60,27.8,92.6,6.3l-9-11.4C72.5,157.1,42.7,155.1,27.4,135.7z"/>
		<path fill="none" stroke="#FFFFFF" stroke-miterlimit="10" d="M151.4,36.1C126.9,5,78.6,2.4,39,28.4l10.9,13.9
			c26.7-16.3,57.8-16.3,77.5,0L91.3,72.1c-8.8-3.3-20.2-1.3-29.5,6.4c-12.8,10.6-16.4,27.7-8.1,38.2c8.3,10.6,25.4,10.6,38.2,0
			c9.2-7.6,13.7-18.6,12.3-28.1l36.1-29.8c11.4,23.2,4.8,54.3-16.5,77.5l10.9,13.8C168,116,175.9,67.2,151.4,36.1z"/>
	</g>
</g>
<text transform="matrix(1 0 0 1 686.6342 64.7925)" fill="#FFFFFF" stroke="#FFFFFF" stroke-miterlimit="10" font-family="'KozGoPr6N-Regular-83pv-RKSJ-H'" font-size="21px">Ⓡ</text>
</svg>
