<?xml version="1.0" standalone="no"?>
<!DOCTYPE svg PUBLIC "-//W3C//DTD SVG 20010904//EN"
 "http://www.w3.org/TR/2001/REC-SVG-20010904/DTD/svg10.dtd">
<svg version="1.0" xmlns="http://www.w3.org/2000/svg"
 width="208.000000pt" height="40.000000pt" viewBox="0 0 208.000000 40.000000"
 preserveAspectRatio="xMidYMid meet">
<metadata>
Created by potrace 1.13, written by Peter Selinger 2001-2015
</metadata>
<g transform="translate(0.000000,40.000000) scale(0.100000,-0.100000)"
fill="#000000" stroke="none">
<path d="M955 268 c-52 -30 -61 -93 -19 -135 25 -25 52 -27 97 -8 23 10 22
-10 -3 -35 -26 -26 -55 -25 -81 1 -22 22 -33 21 -24 -4 9 -22 57 -39 89 -31
40 10 56 41 56 106 0 45 -5 62 -22 82 -27 30 -66 40 -93 24z"/>
<path d="M1552 265 c-33 -14 -42 -32 -42 -80 0 -63 81 -98 128 -55 22 21 29
40 14 40 -5 0 -17 -9 -27 -20 -22 -24 -43 -25 -73 -4 -36 25 -26 33 46 36 65
3 67 4 64 27 -6 53 -56 78 -110 56z"/>
</g>
</svg>
